<?xml version="1.0" standalone="no"?>
<!DOCTYPE svg PUBLIC "-//W3C//DTD SVG 20010904//EN"
 "http://www.w3.org/TR/2001/REC-SVG-20010904/DTD/svg10.dtd">
<svg version="1.0" xmlns="http://www.w3.org/2000/svg"
 width="1500.000000pt" height="1900.000000pt" viewBox="0 0 1500.000000 1900.000000"
 preserveAspectRatio="xMidYMid meet">

<g transform="translate(0.000000,1900.000000) scale(0.100000,-0.100000)"
fill="#000000" stroke="none">
<path d="M6985 17970 c-3 -5 -1 -10 4 -10 6 0 11 5 11 10 0 6 -2 10 -4 10 -3
0 -8 -4 -11 -10z"/>
<path d="M7577 17944 c-3 -3 -76 -7 -164 -9 -188 -4 -387 -15 -417 -22 -11 -2
-64 -6 -116 -9 -52 -2 -96 -8 -98 -14 -5 -15 -31 -12 -50 6 -15 15 -17 15 -33
-5 -15 -18 -28 -22 -71 -21 -77 1 -168 -10 -168 -21 0 -5 -13 -6 -30 -2 -19 3
-30 1 -30 -6 0 -6 -3 -10 -7 -9 -5 0 -16 -2 -26 -7 -9 -4 -26 -5 -37 -2 -11 3
-23 1 -26 -4 -3 -5 -10 -7 -15 -3 -11 6 -75 -21 -84 -36 -3 -6 -15 -6 -30 0
-26 10 -95 -5 -95 -20 0 -5 -7 -7 -15 -4 -18 7 -82 -13 -118 -38 -17 -12 -45
-20 -73 -21 -29 0 -48 -5 -51 -14 -3 -7 -17 -13 -30 -13 -14 0 -32 -8 -39 -17
-12 -16 -13 -16 -14 -2 0 11 -9 16 -28 15 -24 -1 -28 -5 -24 -23 3 -15 -1 -23
-9 -23 -8 0 -23 -3 -35 -6 -12 -3 -27 1 -36 10 -14 13 -17 12 -26 -10 -7 -14
-20 -24 -32 -24 -14 0 -20 -7 -21 -22 0 -13 -3 -17 -6 -10 -4 9 -13 7 -39 -9
-29 -17 -39 -19 -65 -10 -24 8 -31 7 -36 -5 -3 -8 -12 -13 -19 -10 -8 3 -14 0
-14 -7 0 -30 -44 -51 -109 -51 -42 -1 -66 -5 -68 -14 -3 -7 1 -10 11 -6 23 9
20 -5 -6 -26 -13 -11 -32 -17 -43 -14 -13 3 -16 2 -8 -3 21 -15 -1 -31 -48
-34 -35 -3 -45 -1 -42 9 4 10 0 10 -21 1 -14 -7 -26 -19 -26 -27 0 -9 -7 -13
-20 -9 -21 6 -28 -9 -7 -16 6 -2 1 -2 -12 0 -34 6 -73 -33 -64 -65 4 -18 2
-23 -6 -18 -6 4 -8 13 -4 19 4 7 -5 4 -20 -6 -15 -10 -27 -13 -27 -7 0 6 -4 9
-10 5 -5 -3 -7 -12 -3 -20 9 -26 -17 -47 -49 -40 -20 5 -30 2 -34 -9 -3 -9
-11 -13 -17 -9 -6 3 -7 1 -3 -5 4 -7 1 -12 -9 -12 -9 0 -13 -4 -10 -10 3 -5
-1 -10 -10 -10 -11 0 -15 -5 -11 -16 3 -8 2 -12 -4 -9 -16 10 -50 -5 -50 -20
0 -8 -21 -24 -47 -36 -31 -14 -42 -23 -33 -29 8 -5 9 -9 1 -14 -6 -4 -15 -5
-19 -2 -11 7 -63 -39 -54 -48 4 -4 0 -6 -8 -4 -8 2 -14 -3 -12 -10 1 -8 -2
-11 -7 -7 -17 10 -51 -18 -51 -42 0 -13 -5 -23 -11 -23 -5 0 -7 5 -4 10 10 17
-3 11 -30 -12 -13 -11 -22 -25 -19 -30 3 -5 2 -8 -3 -7 -20 3 -34 -2 -28 -11
3 -5 1 -10 -6 -10 -18 0 -159 -142 -152 -153 3 -6 2 -7 -4 -4 -18 11 -320
-314 -308 -333 3 -5 0 -8 -7 -5 -13 5 -24 -9 -193 -235 -47 -63 -89 -119 -93
-125 -48 -62 -178 -268 -263 -415 -82 -144 -239 -463 -239 -485 0 -4 -8 -25
-19 -48 -113 -256 -257 -760 -326 -1137 -47 -258 -60 -358 -107 -825 -8 -74
-11 -537 -12 -1422 -1 -868 -4 -1313 -11 -1314 -5 0 -39 0 -75 1 -102 1 -219
-24 -362 -80 -73 -28 -176 -67 -228 -87 -165 -62 -230 -95 -253 -127 -25 -35
-25 87 -7 -1251 5 -407 14 -1109 20 -1560 19 -1533 30 -2339 40 -2955 6 -338
17 -1093 24 -1677 14 -1045 14 -1063 35 -1096 37 -60 60 -64 493 -102 298 -26
324 -28 317 -21 -4 4 -170 21 -309 31 -41 3 -118 12 -170 20 -124 18 -212 29
-227 28 -20 -1 -53 41 -56 74 -2 16 -8 36 -12 44 -5 7 -9 209 -10 447 -1 371
1 436 13 449 11 11 12 17 4 22 -10 6 -15 55 -13 111 2 34 -7 151 -11 156 -3 2
-2 25 3 49 5 27 4 67 -1 97 -7 36 -7 55 1 64 6 8 9 24 6 36 -3 13 -2 66 3 118
5 52 6 98 1 102 -4 5 -6 54 -4 110 3 77 8 106 20 120 15 16 11 23 -10 19 -5
-1 -8 49 -8 111 1 208 1 242 0 583 -1 546 -3 679 -12 693 -5 6 -3 28 4 46 10
27 10 44 1 73 -6 21 -11 56 -10 79 1 22 -2 45 -6 52 -4 6 -2 21 4 32 6 11 8
24 5 29 -3 5 1 11 7 14 10 3 10 9 0 28 -7 13 -12 35 -11 49 0 14 -2 61 -5 105
-5 83 -17 482 -22 715 -1 74 -5 225 -8 335 -11 374 -20 802 -31 1495 -2 151
-7 412 -12 580 -11 482 -8 1271 7 1372 l12 88 57 -6 c31 -3 72 -9 91 -14 46
-12 232 -37 485 -64 83 -9 206 -25 275 -36 69 -11 179 -27 245 -35 66 -8 161
-21 210 -29 50 -8 142 -21 205 -30 184 -26 284 -42 510 -80 165 -28 216 -36
290 -42 41 -3 89 -10 105 -15 35 -10 222 -40 465 -74 96 -14 225 -32 285 -41
61 -8 146 -19 190 -25 44 -5 103 -13 130 -18 135 -25 288 -47 490 -71 39 -4
138 -18 220 -30 83 -11 190 -25 238 -30 48 -5 91 -11 95 -14 9 -5 243 -38 497
-70 169 -20 210 -22 375 -15 168 7 511 27 585 34 17 1 109 5 205 9 159 6 295
13 825 46 94 6 220 13 280 15 99 4 247 13 705 44 80 5 210 13 290 16 79 4 147
8 150 10 3 2 97 6 210 10 113 4 210 11 215 15 6 4 73 8 149 9 77 1 143 4 146
6 6 4 312 19 900 45 135 6 301 15 370 20 69 6 161 12 205 15 44 3 100 7 125
10 25 3 117 7 205 10 88 3 171 8 184 11 19 4 22 2 17 -12 -6 -17 9 -44 25 -44
5 0 9 17 9 38 0 35 4 40 44 60 24 12 63 25 88 28 l45 6 7 -93 c5 -82 9 -1435
6 -1919 -1 -155 0 -236 2 -320 1 -14 0 -41 -1 -60 -2 -30 -4 -160 -3 -210 8
-478 8 -561 0 -566 -5 -3 -6 -13 -3 -23 11 -28 16 -679 5 -686 -6 -4 -5 -18 4
-39 9 -22 11 -38 4 -50 -6 -10 -7 -33 -4 -51 5 -22 2 -35 -6 -38 -10 -5 -9 -8
3 -16 13 -8 15 -31 13 -134 -1 -69 -5 -139 -9 -157 -5 -22 -3 -35 5 -40 16
-10 15 -66 -1 -86 -9 -12 -9 -23 1 -53 7 -22 10 -50 7 -63 -4 -14 -2 -40 4
-59 13 -45 2 -129 -17 -129 -19 0 -18 -14 2 -31 14 -11 16 -29 12 -109 -3 -52
-1 -104 4 -116 7 -15 5 -30 -6 -53 -12 -22 -14 -36 -7 -49 10 -18 18 -812 11
-1027 -1 -55 0 -122 4 -149 5 -33 4 -57 -5 -72 -10 -19 -9 -29 4 -56 12 -26
14 -52 8 -128 -4 -59 -3 -106 3 -123 8 -20 7 -33 -2 -48 -7 -11 -9 -25 -5 -32
8 -13 18 -548 14 -717 -1 -36 0 -249 3 -475 3 -225 7 -533 8 -682 2 -150 5
-273 8 -273 11 0 246 215 328 299 46 48 101 109 123 138 l40 51 -11 1734 c-5
953 -14 2260 -20 2903 -5 644 -12 1645 -15 2225 -5 1071 -14 1852 -20 1858 -5
5 -66 8 -525 28 -223 9 -406 17 -406 18 -1 0 -5 300 -8 666 -14 1333 -19 1595
-42 1905 -8 110 -17 232 -20 270 -2 39 -9 90 -14 115 -5 25 -14 98 -20 162
-27 280 -100 676 -177 956 -20 72 -29 90 -39 82 -9 -8 -14 -6 -19 9 -5 17 -10
19 -25 11 -21 -11 -24 -6 -36 65 -4 22 -11 48 -15 57 -5 9 -10 28 -11 42 -1
13 -5 23 -9 20 -14 -8 -20 33 -9 61 8 21 7 34 -4 57 -8 16 -13 35 -10 42 5 13
-42 66 -59 66 -6 0 -7 3 -4 6 3 4 1 16 -5 28 -6 11 -11 33 -10 49 2 18 -2 27
-13 27 -8 0 -15 5 -15 11 0 7 10 9 24 7 24 -5 25 -3 21 41 -4 60 -4 58 -14 42
-8 -12 -11 -9 -16 12 -4 15 -4 34 -1 43 5 13 0 12 -29 -5 -19 -11 -34 -17 -34
-13 4 24 -4 44 -21 59 -11 10 -20 30 -20 45 0 14 -7 33 -15 41 -8 8 -17 33
-21 56 -4 22 -10 38 -15 35 -5 -3 -9 5 -9 16 0 16 -5 20 -15 16 -10 -3 -16 1
-17 12 0 9 -2 22 -2 29 -1 7 -7 18 -14 25 -6 6 -12 20 -12 30 0 10 -7 21 -15
24 -14 6 -24 24 -56 102 -8 17 -17 32 -21 32 -5 0 -8 5 -8 11 0 6 -7 17 -15
25 -10 10 -13 24 -9 41 6 22 4 25 -10 20 -11 -5 -16 -1 -16 13 0 11 -16 35
-35 53 -19 18 -38 47 -41 65 -4 18 -10 32 -14 32 -10 0 -31 50 -25 61 4 5 -2
9 -13 9 -10 0 -26 8 -35 18 -18 20 -23 37 -8 28 5 -3 14 1 21 9 10 12 7 14
-19 10 -25 -3 -31 0 -31 16 0 11 -7 22 -15 25 -8 4 -15 13 -15 20 0 8 -7 17
-16 21 -11 4 -14 13 -10 29 5 17 2 24 -8 24 -7 0 -21 11 -30 24 -8 14 -25 27
-36 31 -11 3 -20 15 -20 25 0 10 -11 25 -24 34 -13 8 -27 29 -31 46 -4 16 -12
30 -18 30 -13 0 -77 70 -77 85 0 6 -9 17 -21 25 -11 8 -27 30 -36 48 -9 19
-23 37 -32 40 -24 9 -41 28 -41 47 0 8 -11 21 -25 27 -14 6 -25 17 -25 25 0 7
-4 13 -9 13 -4 0 -21 12 -38 28 -63 58 -90 79 -122 93 -26 11 -31 19 -28 37 3
17 1 22 -9 18 -8 -3 -18 4 -24 14 -6 11 -16 20 -23 20 -17 0 -127 110 -127
126 0 18 -31 33 -59 28 -20 -4 -31 -2 -31 4 0 6 7 9 15 6 8 -4 15 -2 15 3 0 5
-32 29 -70 54 -39 24 -83 54 -98 66 -15 13 -32 23 -39 23 -6 0 -21 14 -33 30
-12 17 -31 30 -42 30 -14 0 -18 5 -14 16 4 11 1 14 -12 10 -19 -6 -54 20 -65
47 -3 9 -13 17 -22 17 -22 0 -55 21 -83 53 -13 15 -28 25 -33 21 -5 -3 -9 -1
-9 5 0 5 -20 20 -45 32 -24 12 -57 35 -72 51 -15 15 -31 28 -36 28 -5 0 -29
14 -54 30 -24 17 -49 30 -56 30 -6 0 -25 13 -42 29 -30 29 -98 71 -115 71 -4
0 -38 20 -74 44 -37 25 -80 47 -96 51 -16 4 -33 11 -36 17 -5 8 -131 70 -224
110 -61 26 -76 34 -85 44 -5 7 -30 15 -55 18 -24 4 -48 12 -52 19 -4 6 -13 12
-20 12 -50 2 -118 19 -115 29 2 7 -29 19 -82 33 -173 44 -186 49 -183 66 2 10
-2 17 -8 17 -5 0 -10 -7 -10 -16 0 -11 -5 -14 -16 -10 -9 3 -28 9 -42 12 -15
3 -52 15 -82 26 -30 11 -82 21 -115 21 -39 1 -69 8 -85 20 -31 22 -62 23 -53
1 4 -12 0 -14 -23 -8 -46 11 -50 17 -19 31 27 11 23 12 -49 10 -57 -1 -80 2
-84 11 -3 10 -7 10 -18 1 -11 -9 -21 -8 -44 1 -17 7 -46 10 -66 7 -47 -8 -146
10 -161 29 -9 12 -16 13 -32 5 -29 -16 -133 -13 -174 4 -19 8 -37 12 -40 9z
m-232 -468 c118 -3 235 -11 285 -21 46 -8 98 -15 115 -15 29 1 175 -22 225
-34 14 -4 83 -15 153 -26 71 -10 136 -25 145 -33 10 -7 44 -19 77 -26 33 -7
89 -23 125 -36 36 -12 92 -30 125 -40 75 -21 187 -64 199 -76 6 -5 16 -9 23
-9 7 0 73 -27 146 -60 74 -33 139 -60 145 -60 6 0 52 -22 103 -50 51 -27 93
-50 95 -50 2 0 30 -16 61 -36 101 -64 212 -185 269 -294 14 -27 30 -50 35 -50
5 0 15 -13 24 -30 8 -16 33 -39 55 -50 22 -11 47 -31 56 -45 9 -14 23 -25 31
-25 8 0 42 -27 76 -60 34 -33 70 -63 79 -66 12 -3 18 -16 18 -34 0 -21 8 -35
26 -47 14 -9 30 -27 35 -41 8 -20 14 -23 35 -18 21 6 33 -2 74 -44 28 -28 50
-58 50 -66 0 -11 6 -13 20 -9 13 4 20 2 20 -7 0 -7 24 -40 53 -73 29 -33 59
-73 67 -88 8 -16 22 -33 31 -38 14 -7 71 -77 104 -127 6 -9 38 -53 73 -99 34
-46 62 -90 62 -98 0 -7 8 -20 18 -27 9 -7 26 -30 37 -52 11 -21 30 -48 42 -60
13 -11 23 -26 23 -33 0 -24 23 -63 40 -68 10 -3 21 -20 24 -39 4 -18 17 -43
31 -56 14 -13 25 -34 25 -48 0 -20 50 -105 71 -122 4 -3 12 -23 18 -45 10 -38
51 -125 69 -149 5 -6 12 -24 16 -39 4 -16 17 -45 29 -65 13 -20 28 -57 35 -82
25 -100 38 -137 60 -167 12 -17 25 -52 28 -77 4 -25 12 -46 18 -46 6 0 17 -30
24 -67 7 -37 17 -70 22 -73 6 -3 12 -28 16 -56 3 -27 9 -58 14 -69 5 -11 17
-56 26 -100 9 -44 20 -84 24 -90 4 -5 11 -32 15 -60 4 -27 11 -55 17 -62 5 -7
7 -20 4 -30 -3 -10 -1 -25 4 -32 5 -9 5 -22 -1 -34 -8 -14 -7 -23 5 -36 9 -10
16 -32 16 -50 0 -18 5 -41 10 -52 6 -10 15 -70 21 -132 6 -61 15 -120 20 -129
5 -10 9 -45 9 -77 0 -33 5 -63 11 -66 6 -4 9 -36 8 -77 -1 -47 2 -72 10 -78
10 -6 11 -12 1 -30 -9 -17 -9 -24 0 -30 8 -5 13 -56 15 -156 2 -82 8 -178 12
-214 5 -36 8 -129 8 -207 0 -79 4 -143 9 -143 5 0 6 -22 4 -50 -4 -35 -1 -53
9 -61 10 -9 10 -15 2 -25 -6 -7 -8 -18 -4 -24 4 -6 -1 -17 -10 -24 -14 -10
-16 -19 -10 -42 11 -35 17 -80 16 -114 0 -14 -1 -164 -1 -335 -2 -309 -2 -310
19 -307 29 4 27 -16 -2 -23 -21 -6 -23 -12 -23 -60 1 -45 4 -55 20 -59 19 -5
19 -6 3 -24 -19 -21 -23 -77 -7 -87 7 -4 8 -11 1 -18 -14 -18 -11 -86 6 -103
13 -13 13 -17 1 -32 -10 -13 -14 -48 -13 -137 0 -111 1 -120 19 -120 26 0 33
-25 8 -32 -14 -3 -21 -16 -25 -43 -6 -47 2 -160 14 -181 6 -11 4 -21 -5 -28
-18 -15 -27 -63 -14 -78 6 -7 8 -19 5 -27 -9 -22 12 -86 28 -86 8 0 17 -5 21
-12 5 -8 0 -9 -15 -5 -22 5 -22 4 -17 -60 2 -37 0 -91 -5 -121 -5 -34 -5 -60
1 -67 5 -6 12 -29 16 -52 5 -35 3 -43 -14 -52 -11 -6 -32 -11 -46 -11 -14 0
-26 -4 -26 -10 0 -5 13 -10 29 -10 17 0 32 -4 35 -9 7 -11 -184 -11 -204 0 -9
5 8 9 48 9 91 0 76 17 -25 25 -94 8 -137 21 -129 41 3 7 1 14 -3 16 -5 2 -5
37 -1 78 6 63 6 264 0 295 -2 6 -2 12 0 15 6 16 4 150 -3 153 -4 1 -3 16 2 34
5 19 6 47 0 70 -5 21 -6 52 -3 69 3 19 1 35 -6 39 -8 5 -8 10 0 21 7 7 12 39
11 71 -2 196 -3 234 -2 293 2 104 0 112 -20 117 -25 7 -24 19 1 26 17 4 19 14
19 98 -1 52 -1 137 0 189 2 153 0 200 -9 205 -5 3 -6 29 -3 58 7 57 7 75 0
187 -2 41 -8 84 -12 94 -6 14 -3 23 11 33 14 10 16 17 8 31 -7 10 -9 56 -7
116 3 80 1 102 -12 116 -10 11 -12 20 -6 24 6 4 7 48 3 119 -4 61 -7 131 -7
155 0 23 -4 42 -8 42 -5 0 -8 42 -7 93 1 95 -14 219 -31 250 -6 11 -6 24 1 37
7 14 8 26 0 39 -5 11 -10 38 -10 61 0 23 -5 50 -11 61 -7 14 -7 24 0 33 8 10
5 31 -13 78 -13 37 -22 83 -21 104 1 22 -1 44 -6 50 -5 6 -9 26 -10 45 -2 19
-6 39 -9 44 -4 6 -13 50 -19 100 -11 83 -38 181 -61 230 -6 11 -12 45 -14 75
-2 30 -4 61 -5 69 -1 11 -4 11 -16 1 -21 -17 -33 -5 -33 35 0 20 -4 41 -10 48
-5 6 -12 26 -15 42 -4 17 -9 44 -13 62 -3 17 -15 41 -25 52 -10 11 -24 42 -30
68 -6 26 -15 56 -20 65 -5 10 -9 31 -9 48 0 20 -6 33 -17 37 -26 10 -42 34
-43 65 0 17 -8 31 -20 38 -11 6 -20 20 -20 31 0 12 -9 34 -21 50 -11 16 -23
45 -26 66 -4 20 -17 49 -31 65 -31 34 -83 117 -117 184 -14 29 -32 57 -40 64
-8 7 -15 23 -15 37 0 14 -4 21 -10 18 -5 -3 -10 1 -10 9 0 8 -6 21 -12 28 -7
7 -20 26 -28 42 -8 16 -30 43 -47 60 -18 17 -33 35 -33 42 0 6 -13 25 -30 42
-16 18 -30 38 -30 45 0 6 -9 18 -20 25 -11 7 -20 17 -20 22 0 6 -16 26 -35 46
-19 19 -35 39 -35 44 0 5 -6 13 -13 17 -7 4 -48 51 -92 103 -96 113 -328 347
-354 355 -10 3 -33 19 -50 35 -17 17 -35 30 -40 30 -5 0 -11 9 -14 20 -3 10
-26 29 -51 42 -25 12 -46 27 -46 33 0 6 -31 27 -68 46 -38 20 -67 40 -65 46 2
6 -12 14 -32 17 -19 4 -35 8 -35 9 0 2 27 32 60 67 56 61 89 115 124 203 8 20
12 37 7 37 -4 0 -13 -17 -20 -37 -24 -65 -59 -111 -117 -154 -123 -91 -235
-101 -377 -34 l-52 25 30 -25 c36 -30 137 -63 217 -72 40 -4 58 -10 58 -20 0
-10 -18 -13 -87 -10 -84 4 -94 7 -202 61 -62 31 -125 65 -140 75 -38 27 -240
122 -366 174 -150 60 -241 91 -365 121 -58 15 -118 30 -135 36 -36 10 -135 29
-350 66 -114 20 -553 30 -690 16 -202 -20 -452 -63 -545 -92 -52 -16 -100 -30
-105 -30 -17 0 -316 -98 -329 -108 -6 -5 -27 -15 -46 -22 -19 -7 -125 -57
-235 -111 -110 -53 -220 -103 -245 -109 -25 -7 -53 -16 -62 -21 -27 -14 -61
-11 -52 4 4 6 -1 4 -12 -5 -11 -9 -37 -19 -58 -21 -27 -3 -47 -13 -67 -35 -28
-30 -47 -42 -35 -24 2 4 0 14 -6 22 -8 13 -9 13 -5 0 8 -27 -11 -60 -35 -60
-14 0 -35 -14 -52 -35 -22 -26 -38 -35 -60 -35 -33 -1 -66 -20 -66 -38 0 -6
-12 -12 -27 -14 -28 -3 -28 -5 -16 -50 3 -10 -3 -18 -16 -23 -12 -3 -21 -12
-21 -18 0 -15 -76 -84 -101 -92 -10 -4 -19 -11 -19 -16 0 -5 -6 -9 -13 -9 -6
0 -18 -13 -25 -30 -8 -18 -21 -30 -33 -30 -10 0 -20 -6 -21 -12 0 -7 -2 -17
-3 -23 -2 -5 -3 -16 -4 -22 0 -7 -10 -13 -21 -13 -11 0 -20 -7 -20 -15 0 -8
-5 -15 -10 -15 -6 0 -17 -15 -25 -32 -8 -18 -14 -29 -15 -24 0 14 -40 -26 -40
-41 0 -7 -4 -13 -9 -13 -5 0 -11 -9 -14 -20 -3 -11 -13 -23 -24 -27 -24 -8
-45 -30 -69 -73 -22 -40 -70 -90 -86 -90 -6 0 -8 -11 -5 -30 5 -23 2 -32 -14
-40 -11 -6 -25 -23 -30 -38 -8 -21 -12 -24 -20 -12 -8 13 -10 13 -19 0 -5 -8
-8 -21 -5 -29 3 -7 0 -20 -7 -29 -7 -8 -13 -25 -13 -36 0 -14 -7 -22 -23 -24
-17 -3 -23 -9 -19 -22 5 -21 -7 -44 -25 -46 -7 -1 -18 -2 -24 -3 -7 -1 -10
-21 -8 -51 2 -45 0 -50 -16 -45 -24 8 -65 -42 -50 -60 8 -10 4 -18 -15 -33
-14 -11 -25 -27 -25 -35 0 -9 -7 -20 -16 -25 -13 -7 -20 -23 -23 -54 -1 -4 -8
-5 -16 -2 -9 4 -15 0 -15 -9 0 -9 -6 -20 -13 -24 -25 -15 -35 -45 -27 -80 7
-30 5 -35 -15 -43 -23 -9 -27 -16 -39 -72 -4 -16 -11 -28 -16 -28 -6 0 -10
-13 -10 -30 0 -20 -5 -30 -15 -30 -8 0 -15 -9 -15 -19 0 -11 -5 -23 -12 -27
-8 -5 -6 -10 8 -15 17 -7 17 -8 -4 -8 -19 -1 -21 -5 -16 -27 7 -29 -14 -52
-28 -31 -4 7 -8 -4 -8 -25 0 -26 -5 -38 -14 -38 -9 0 -16 -17 -21 -47 -9 -66
-26 -103 -48 -103 -14 0 -17 -5 -12 -19 4 -13 -1 -27 -13 -39 -10 -10 -19 -25
-20 -33 0 -8 -4 -24 -7 -36 -6 -18 -3 -23 11 -24 11 -1 6 -4 -11 -8 -21 -4
-30 -13 -31 -26 -3 -58 -5 -65 -19 -65 -8 0 -15 -9 -15 -20 0 -22 15 -27 23
-7 3 6 6 2 6 -10 1 -13 -5 -23 -13 -23 -10 0 -13 -15 -12 -55 0 -30 4 -55 8
-55 16 0 7 -18 -10 -23 -11 -2 -21 -13 -24 -24 -4 -16 -1 -19 13 -16 29 8 23
-19 -11 -52 -19 -19 -26 -32 -20 -40 5 -6 5 -26 -1 -50 -19 -76 -40 -300 -43
-456 -1 -58 -6 -110 -10 -117 -4 -6 -9 -87 -11 -179 -2 -93 -7 -199 -11 -237
-5 -51 -4 -67 4 -62 7 4 12 1 12 -8 0 -9 -3 -16 -7 -16 -5 0 -8 -93 -9 -207 0
-115 -2 -217 -3 -228 -2 -24 6 -160 9 -160 1 0 3 -17 4 -37 2 -21 0 -38 -3
-38 -3 0 -7 -83 -8 -184 -1 -149 1 -187 13 -197 16 -13 19 -39 4 -39 -11 0 -7
-71 5 -89 3 -6 -1 -13 -9 -18 -11 -6 -12 -18 -7 -50 5 -25 4 -59 -2 -82 -9
-33 -8 -43 6 -58 11 -13 13 -23 7 -33 -5 -8 -9 -76 -8 -151 0 -89 -3 -143 -11
-158 -11 -19 -10 -26 5 -42 15 -17 16 -22 4 -44 -12 -23 -12 -27 9 -42 19 -12
22 -21 17 -47 -12 -58 -8 -234 5 -242 6 -4 6 -10 0 -17 -5 -7 -11 -23 -13 -36
-2 -18 -13 -27 -43 -37 l-40 -12 63 -1 c34 -1 62 -5 62 -11 0 -6 -37 -10 -92
-10 -113 0 -199 10 -192 21 3 5 -6 14 -19 20 -17 8 -23 17 -20 30 3 11 0 25
-6 33 -7 9 -9 56 -6 149 3 81 2 138 -4 141 -5 4 -6 18 -2 34 11 39 1 392 -11
392 -7 0 -7 4 -1 13 12 15 11 546 -1 566 -11 16 -9 112 2 123 4 4 5 36 2 71
-13 138 -1 1394 15 1492 3 17 8 80 11 140 3 61 10 130 15 155 8 43 15 106 24
233 2 32 8 80 14 105 5 26 15 79 20 117 6 39 22 124 36 190 14 66 28 134 31
150 4 17 13 49 20 73 8 24 12 47 9 52 -3 5 -1 11 4 14 4 3 11 29 15 58 4 29
11 57 16 63 5 6 23 53 40 105 17 52 43 124 56 160 26 66 28 73 60 149 10 24
17 52 17 62 -1 11 2 19 7 19 5 0 17 14 26 32 15 29 15 32 0 40 -21 12 -10 31
14 23 16 -5 20 1 25 32 3 21 8 46 10 55 2 15 -2 17 -23 12 -36 -9 -40 -14 -19
-25 24 -14 21 -29 -5 -29 -13 0 -32 -7 -43 -16 -19 -14 -19 -16 -3 -44 17 -29
16 -30 -3 -30 -31 0 -59 -19 -59 -40 0 -11 -9 -24 -20 -30 -11 -6 -28 -30 -39
-53 -11 -23 -36 -57 -55 -76 -21 -21 -38 -49 -42 -68 -4 -19 -14 -41 -23 -50
-16 -17 -71 -139 -71 -159 0 -6 -9 -23 -20 -37 -11 -14 -20 -35 -20 -47 0 -16
-4 -20 -16 -16 -31 12 -55 -29 -71 -121 -3 -18 -9 -30 -14 -27 -5 3 -9 0 -9
-6 0 -6 -5 -8 -10 -5 -13 8 -2 83 16 112 8 12 11 29 8 38 -4 8 -2 21 3 28 5 6
10 30 12 52 3 50 30 145 40 145 5 0 11 23 14 51 4 28 15 65 27 83 11 19 20 41
20 51 0 30 100 225 116 225 16 0 19 16 3 25 -15 10 28 38 47 31 8 -3 17 1 20
9 4 8 18 15 33 15 23 1 24 2 8 11 -9 6 -26 7 -37 4 -14 -4 -20 -2 -20 8 0 21
27 29 52 16 29 -15 68 -3 68 21 0 17 3 19 19 8 16 -10 23 -9 40 6 11 10 20 21
19 25 -2 20 4 30 23 36 11 4 24 18 29 31 8 20 14 23 35 18 18 -4 25 -2 25 8 0
8 25 41 55 74 30 32 55 66 55 76 0 9 20 37 45 63 25 25 53 58 62 73 10 15 32
45 50 68 18 23 33 45 33 49 0 7 72 96 107 133 7 7 13 18 13 24 0 5 16 26 35
47 19 20 65 71 102 115 37 43 96 107 131 142 34 35 62 66 62 68 0 3 25 30 55
61 30 30 55 60 55 65 0 6 9 10 19 10 11 0 28 10 38 23 24 29 102 96 148 127
82 55 118 95 151 167 49 108 157 240 248 302 105 73 495 250 678 310 130 42
456 123 603 150 66 13 149 29 185 36 79 17 219 29 455 41 66 3 122 7 123 9 2
2 9 2 15 0 7 -3 102 -6 212 -9z m-2094 -41 c0 -5 -9 -11 -21 -13 -20 -3 -27 8
-13 22 10 9 34 3 34 -9z m-201 -105 c0 -5 -2 -10 -4 -10 -3 0 -8 5 -11 10 -3
6 -1 10 4 10 6 0 11 -4 11 -10z m-290 -174 c0 -11 -19 -15 -25 -6 -3 5 1 10 9
10 9 0 16 -2 16 -4z m-325 -236 c-3 -5 -12 -10 -18 -10 -7 0 -6 4 3 10 19 12
23 12 15 0z m5184 -185 c0 -5 -6 -1 -14 9 -8 11 -15 24 -15 30 0 5 7 1 15 -10
8 -10 14 -23 14 -29z m-2380 -330 c-5 -5 -33 -11 -62 -12 -29 0 -68 -4 -88 -8
-23 -4 -46 -2 -60 6 -23 12 -23 12 -4 19 32 12 227 8 214 -5z m-255 -16 c-3
-5 -23 -9 -45 -9 -21 0 -39 -4 -39 -10 0 -5 -4 -10 -10 -10 -5 0 -10 9 -10 19
0 16 8 20 43 23 49 4 69 -1 61 -13z m513 15 c-3 -3 -12 -4 -19 -1 -8 3 -5 6 6
6 11 1 17 -2 13 -5z m-627 -23 c0 -15 -11 -19 -81 -31 -150 -27 -227 -45 -274
-66 -16 -7 -57 -19 -90 -27 -33 -8 -85 -21 -115 -30 -30 -8 -57 -14 -58 -12
-6 6 69 41 128 60 30 10 64 22 75 27 11 4 38 10 60 13 50 5 104 19 130 32 11
6 44 14 72 18 29 4 55 11 59 16 7 12 94 12 94 0z m-660 -181 c0 -5 -8 -10 -17
-10 -15 0 -16 2 -3 10 19 12 20 12 20 0z m-80 -34 c-8 -8 -31 -17 -50 -20 -27
-5 -30 -4 -14 3 12 5 25 14 29 20 3 6 16 11 28 11 19 0 19 -2 7 -14z m1490
-26 c279 -21 636 -101 885 -198 590 -231 1104 -620 1467 -1110 270 -364 492
-841 590 -1267 42 -183 48 -218 63 -347 8 -73 21 -180 29 -238 13 -93 26 -229
66 -710 33 -394 56 -1427 43 -1935 l-8 -330 -100 1 c-55 0 -89 -1 -75 -3 50
-8 54 -12 27 -33 -24 -19 -28 -60 -5 -60 5 0 6 -4 3 -10 -3 -5 -19 -10 -35
-10 -16 0 -32 5 -35 10 -3 6 5 10 19 10 19 0 24 4 19 15 -3 9 -8 14 -11 11 -3
-3 -14 4 -24 16 -16 18 -21 20 -28 8 -5 -8 -7 -17 -4 -21 8 -14 -40 -17 -60
-3 -11 7 -16 14 -11 14 6 0 1 6 -9 12 -15 8 -22 7 -35 -9 -13 -16 -28 -19 -80
-19 -42 1 -66 6 -69 14 -6 18 -29 15 -41 -5 -8 -15 -30 -17 -188 -18 -165 0
-180 -2 -205 -21 -20 -15 -24 -24 -16 -35 7 -11 11 -11 15 -1 3 9 16 11 39 6
27 -5 34 -3 34 10 0 19 16 21 23 2 5 -12 42 -25 89 -30 21 -3 37 -16 20 -16
-7 0 -12 -7 -12 -15 0 -23 20 -18 42 10 20 25 78 36 78 15 0 -5 -13 -10 -30
-10 -16 0 -30 -4 -30 -10 0 -12 0 -12 63 -15 26 -1 50 1 53 6 3 5 0 9 -5 9 -6
0 -11 5 -11 11 0 11 66 7 77 -5 3 -3 13 -1 20 6 11 9 16 9 23 -2 7 -11 11 -11
24 -1 9 8 24 10 38 5 13 -4 51 -7 86 -5 49 2 63 -1 68 -13 8 -20 30 -21 41 -2
4 8 28 19 52 25 45 10 75 5 65 -10 -3 -5 2 -12 10 -15 9 -3 16 -13 16 -21 0
-9 19 -33 42 -54 49 -45 40 -54 -44 -46 -29 3 -95 7 -145 9 -51 2 -93 7 -93
11 0 5 -37 6 -82 3 -87 -6 -100 -3 -111 28 -6 14 -10 16 -22 6 -15 -12 -10
-40 8 -40 12 0 -24 -29 -37 -30 -4 0 -6 9 -3 20 8 32 -15 47 -64 41 -50 -7
-66 -31 -20 -31 16 0 33 -5 37 -11 4 -7 -51 -9 -192 -4 -110 3 -236 6 -280 6
-45 0 -94 4 -110 9 -16 4 -23 9 -16 9 21 2 3 21 -19 21 -18 0 -19 4 -13 38 7
34 6 36 -9 23 -10 -7 -17 -22 -17 -32 0 -33 -19 -21 -39 25 -26 55 -71 78 -71
36 0 -14 7 -20 21 -20 26 0 54 -26 38 -36 -6 -3 -16 0 -21 7 -6 10 -7 6 -2
-11 10 -38 24 -52 39 -40 9 8 15 8 20 0 5 -8 11 -8 19 -1 13 11 26 5 26 -12 0
-9 -350 -1 -359 9 -2 2 8 4 22 4 36 0 34 17 -3 25 -35 8 -54 -1 -46 -22 5 -13
-8 -14 -96 -9 -57 3 -179 8 -273 11 -93 3 -201 8 -239 11 -63 6 -67 8 -46 19
l23 13 -21 6 c-27 9 -45 -1 -38 -21 5 -13 -14 -14 -146 -9 -84 4 -254 9 -378
12 -124 3 -230 6 -237 7 -7 0 -10 4 -7 9 3 4 1 8 -5 8 -5 0 -17 3 -27 7 -12 4
-15 3 -10 -5 5 -8 -3 -12 -23 -12 -21 0 -31 5 -31 15 0 9 -10 16 -27 17 -96 6
-170 5 -183 -3 -10 -6 -1 -8 28 -9 23 0 42 -4 42 -10 0 -10 -337 -5 -440 7
-30 4 -95 7 -145 8 -136 2 -289 17 -297 28 -4 7 -11 7 -20 -1 -28 -22 -202 -7
-219 20 -6 9 -11 8 -25 -3 -23 -19 -315 -21 -322 -1 -5 15 -38 16 -47 1 -5 -7
-29 -8 -69 -4 -57 6 -168 11 -383 16 -73 2 -93 6 -93 17 0 10 9 13 30 10 17
-3 30 -1 30 3 0 4 64 6 143 5 78 -1 152 1 165 6 13 4 42 4 65 -2 26 -6 46 -5
51 1 6 5 18 9 28 9 10 0 18 6 18 14 0 10 -17 16 -57 21 -32 3 -70 8 -84 10
-14 2 -32 -1 -38 -8 -10 -9 -16 -7 -28 11 -18 25 -55 29 -77 7 -19 -19 -26
-19 -26 0 0 10 -10 15 -31 15 -26 0 -30 -3 -26 -19 3 -13 -1 -21 -14 -24 -21
-6 -35 8 -18 18 5 4 8 13 5 21 -7 18 6 24 67 31 78 9 127 7 172 -5 36 -10 42
-9 57 8 19 24 48 26 48 5 0 -12 13 -14 78 -11 50 3 69 1 55 -5 -28 -10 -30
-35 -4 -42 13 -3 17 0 14 12 -5 20 53 51 94 51 22 0 24 -2 13 -15 -15 -18 -7
-30 14 -22 9 4 13 13 10 21 -4 11 11 16 73 22 43 4 112 7 153 6 50 -1 70 2 60
8 -8 5 -30 10 -49 10 -38 0 -109 19 -129 33 -9 7 -17 6 -24 -1 -9 -9 -8 -12 6
-12 9 0 14 -4 11 -10 -8 -13 -62 -13 -69 -1 -4 5 0 12 6 14 8 3 7 6 -4 6 -9 1
-21 -7 -27 -16 -7 -14 -12 -15 -24 -5 -8 7 -23 9 -32 5 -12 -4 -16 -3 -12 4 5
8 -23 11 -88 11 -75 0 -95 -3 -95 -14 0 -8 -4 -14 -10 -14 -5 0 -10 7 -10 16
0 13 -11 15 -62 13 -35 -2 -67 -1 -73 2 -5 3 -37 7 -70 8 -33 1 -78 4 -100 6
-66 7 -371 14 -357 8 10 -4 10 -8 1 -19 -6 -7 -9 -20 -6 -29 5 -11 -2 -14 -29
-13 -19 1 -40 -4 -46 -10 -9 -9 -6 -12 13 -13 53 -2 95 -1 109 2 10 3 15 -5
15 -23 1 -17 -4 -28 -12 -28 -7 0 -13 7 -13 15 0 22 -21 19 -27 -4 -7 -28
-113 -34 -164 -9 -40 19 -69 49 -33 33 10 -4 33 -10 50 -12 29 -5 31 -3 31 26
0 25 -4 31 -22 31 -11 0 -26 5 -33 12 -15 15 -16 42 -2 33 6 -3 20 -3 31 0 21
7 20 7 -5 34 -31 32 -34 51 -6 44 11 -3 20 0 20 6 0 16 27 14 33 -3 6 -16 59
-25 181 -33 67 -4 87 -2 81 7 -4 6 -17 9 -30 6 -13 -3 -34 -2 -47 3 -23 10
-23 10 5 10 15 1 27 6 27 11 0 6 7 10 15 10 8 0 15 -4 15 -9 0 -11 214 -21
273 -12 43 7 65 -1 35 -12 -7 -2 -9 -8 -5 -13 4 -4 17 -3 27 4 12 7 61 12 122
13 117 1 193 15 93 17 -33 1 -190 6 -350 12 -159 6 -414 15 -565 20 -320 12
-463 19 -506 26 l-31 4 -6 683 c-10 1000 -8 1852 3 2033 39 591 177 1161 375
1550 76 150 289 451 443 628 131 151 350 356 499 469 153 117 398 255 596 339
201 84 546 168 762 187 145 12 340 12 495 1z m3780 -824 c0 -3 -4 -8 -10 -11
-5 -3 -10 -1 -10 4 0 6 5 11 10 11 6 0 10 -2 10 -4z m56 -41 c4 -8 18 -15 33
-15 32 0 85 -49 63 -58 -10 -3 -4 -13 18 -33 17 -16 35 -29 40 -29 12 0 100
-117 100 -133 0 -7 13 -23 29 -35 16 -11 32 -33 35 -48 4 -15 15 -39 25 -53
10 -14 31 -48 45 -76 15 -27 36 -63 47 -80 31 -49 76 -146 97 -210 11 -33 31
-85 45 -115 15 -30 42 -103 61 -163 20 -59 42 -120 51 -137 8 -16 15 -42 15
-58 0 -17 11 -69 25 -116 14 -47 25 -96 25 -107 0 -11 5 -29 10 -39 6 -11 15
-54 20 -96 5 -42 14 -82 19 -88 4 -6 11 -36 15 -66 4 -30 15 -100 25 -155 11
-55 26 -163 35 -240 9 -77 21 -176 26 -220 5 -44 14 -143 20 -220 5 -77 12
-167 14 -200 3 -33 8 -193 11 -355 3 -162 8 -329 11 -370 5 -96 5 -48 5 -490
0 -814 6 -1416 14 -1440 4 -14 8 -45 9 -70 l1 -44 -80 -17 c-51 -10 -126 -15
-205 -15 l-125 1 -2 320 c-7 1140 -16 1833 -27 1995 -2 30 -6 102 -10 160 -8
145 -13 201 -26 305 -7 50 -16 137 -21 195 -11 134 -25 258 -39 335 -6 33 -17
116 -25 185 -8 69 -21 154 -30 190 -21 93 -55 260 -59 295 -2 17 -11 62 -20
100 -9 39 -21 90 -26 115 -22 110 -62 271 -82 334 -16 51 -24 63 -29 50 -7
-19 -7 -19 -15 0 -4 11 -2 27 5 37 11 19 6 63 -9 84 -4 6 -11 30 -15 55 -4 25
-14 54 -21 65 -8 11 -14 32 -14 48 0 15 -9 47 -19 70 -11 23 -22 59 -26 80 -4
20 -11 40 -16 42 -4 3 -11 27 -15 53 -3 26 -10 52 -15 58 -10 12 -31 105 -33
144 0 14 -7 30 -15 36 -16 13 -24 111 -10 120 5 3 9 10 9 15 0 6 -5 7 -10 4
-16 -10 -24 25 -13 56 8 20 8 29 0 32 -17 5 2 27 24 27 11 0 22 -7 25 -15z
m664 -561 c0 -8 -4 -12 -10 -9 -5 3 -10 10 -10 16 0 5 5 9 10 9 6 0 10 -7 10
-16z m-9028 -421 c-5 -24 -6 -25 -12 -8 -8 21 -4 35 9 35 5 0 6 -12 3 -27z
m1083 -222 c3 -5 1 -12 -5 -16 -5 -3 -10 1 -10 9 0 18 6 21 15 7z m8198 -37
c-3 -8 0 -14 6 -14 6 0 11 5 11 12 0 24 13 -3 20 -42 4 -22 3 -40 -1 -40 -5 0
-9 -4 -9 -10 0 -5 6 -10 14 -10 17 0 33 -100 21 -121 -5 -7 -4 -10 2 -6 10 6
32 -111 30 -158 0 -11 0 -38 1 -60 2 -30 5 -36 12 -25 8 13 10 12 10 -3 0 -10
-6 -25 -14 -33 -12 -12 -15 -10 -24 14 -5 15 -7 44 -4 65 2 23 0 37 -7 37 -6
0 -11 11 -11 25 0 14 5 25 10 25 6 0 10 8 9 18 0 10 -3 12 -6 5 -13 -35 -29
-9 -49 82 -7 33 -17 79 -23 103 -6 23 -16 61 -22 85 -6 23 -13 55 -16 71 l-6
28 26 -17 c15 -10 24 -22 20 -31z m-8153 22 c0 -7 -7 -19 -15 -26 -13 -11 -15
-8 -15 14 0 16 5 26 15 26 8 0 15 -6 15 -14z m-46 -49 c5 -26 8 -28 23 -16 15
12 16 12 10 -3 -3 -9 -9 -33 -13 -53 -3 -20 -13 -39 -20 -42 -8 -3 -12 -9 -9
-13 3 -5 1 -11 -5 -15 -15 -9 -2 -25 15 -18 20 7 19 -7 -2 -36 -9 -13 -17 -38
-19 -55 -1 -17 -4 -38 -7 -46 -4 -14 -23 -122 -48 -275 -6 -38 -13 -113 -15
-165 -1 -52 -8 -151 -13 -220 -6 -69 -14 -199 -18 -290 -9 -194 -8 -1829 0
-2140 13 -435 11 -580 -7 -598 -18 -18 -149 -29 -209 -18 -33 6 -34 7 -46 85
-7 44 -10 84 -7 90 4 6 8 49 9 95 2 47 -1 80 -5 73 -4 -6 -10 -8 -14 -4 -4 3
-2 12 3 19 6 8 9 119 8 283 -2 167 1 275 7 282 7 9 7 27 0 55 -6 26 -11 242
-12 553 -1 281 -2 537 -3 570 -1 140 14 646 22 715 23 194 32 297 29 322 -3
15 0 29 5 31 6 2 12 28 13 58 3 56 6 75 24 147 6 24 8 48 4 53 -3 5 -1 16 5
23 6 7 12 33 14 59 1 25 6 49 10 53 4 4 7 16 7 27 0 11 6 28 14 36 24 28 28
69 9 80 -14 8 -15 11 -3 11 22 1 61 65 47 79 -8 8 -8 11 0 11 7 0 15 -5 18
-10 4 -6 11 -8 16 -4 6 4 3 14 -7 25 -17 18 -16 20 4 40 12 11 22 24 22 29 0
5 9 11 19 15 16 5 18 11 12 33 -5 16 -4 38 2 52 l11 25 4 -27 c5 -43 22 -33
22 12 0 40 1 41 34 38 29 -2 35 -6 40 -31z m8326 -545 c-13 -5 -13 -39 0 -47
5 -3 7 -12 4 -19 -3 -8 1 -27 8 -43 12 -23 12 -34 2 -63 -12 -32 -13 -32 -13
-9 -1 14 -4 29 -7 32 -4 4 -8 21 -10 39 -2 18 -6 50 -10 71 -4 23 -1 50 7 69
l13 32 8 -30 c4 -17 4 -30 -2 -32z m-8325 -242 c3 -5 1 -10 -4 -10 -6 0 -11 5
-11 10 0 6 2 10 4 10 3 0 8 -4 11 -10z m8375 -15 c0 -9 -6 -12 -15 -9 -8 4
-15 10 -15 15 0 5 7 9 15 9 8 0 15 -7 15 -15z m-10 -117 c0 -16 -3 -19 -11
-11 -6 6 -8 16 -5 22 11 17 16 13 16 -11z m20 -63 c0 -8 -4 -15 -10 -15 -5 0
-7 7 -4 15 4 8 8 15 10 15 2 0 4 -7 4 -15z m-8401 -59 c-9 -8 -10 -7 -5 7 3
10 7 26 7 35 1 9 4 6 6 -7 3 -13 -1 -28 -8 -35z m11 -36 c0 -5 -4 -10 -10 -10
-5 0 -10 5 -10 10 0 6 5 10 10 10 6 0 10 -4 10 -10z m-14 -172 c-4 -62 -10
-165 -14 -228 -4 -63 -6 -438 -6 -832 1 -401 -2 -718 -7 -718 -5 0 -9 3 -10 8
0 4 -2 20 -3 35 -1 16 -8 32 -16 38 -10 6 -12 11 -4 17 7 5 10 191 10 612 -1
593 6 871 23 1020 5 41 7 78 4 83 -5 9 16 77 24 77 3 0 3 -51 -1 -112z m7414
-148 c0 -5 -4 -10 -10 -10 -5 0 -10 5 -10 10 0 6 5 10 10 10 6 0 10 -4 10 -10z
m20 -204 c0 -3 -4 -8 -10 -11 -5 -3 -10 -1 -10 4 0 6 5 11 10 11 6 0 10 -2 10
-4z m-346 -962 c9 -22 -3 -32 -14 -14 -12 19 -12 30 -1 30 5 0 12 -7 15 -16z
m-7464 -480 c0 -9 -5 -14 -12 -12 -18 6 -21 28 -4 28 9 0 16 -7 16 -16z m360
-54 c0 -16 -4 -32 -10 -35 -6 -4 -10 10 -10 35 0 25 4 39 10 35 6 -3 10 -19
10 -35z m7 -160 c1 -46 -2 -91 -7 -99 -8 -14 -9 -13 -10 4 0 11 -2 57 -3 103
-3 56 0 81 7 79 6 -2 12 -38 13 -87z m2 -158 c-1 -9 2 -82 4 -161 5 -144 2
-176 -13 -166 -5 3 -9 77 -9 164 0 88 -1 163 -2 168 -3 17 1 24 10 18 6 -3 10
-13 10 -23z m-1784 -362 c3 -5 -1 -10 -10 -10 -9 0 -13 5 -10 10 3 6 8 10 10
10 2 0 7 -4 10 -10z m122 -22 c-3 -8 -6 -5 -6 6 -1 11 2 17 5 13 3 -3 4 -12 1
-19z m1668 -15 c3 -21 5 -51 5 -68 -1 -16 0 -39 2 -50 2 -14 -3 -20 -17 -20
-16 0 -20 6 -18 30 1 17 3 56 4 88 4 65 14 74 24 20z m-1605 17 c0 -5 -11 -10
-25 -10 -14 0 -25 5 -25 10 0 6 11 10 25 10 14 0 25 -4 25 -10z m442 -32 c-9
-9 -12 -7 -12 12 0 19 3 21 12 12 9 -9 9 -15 0 -24z m2264 -3 c-21 -16 -32
-13 -21 4 3 6 14 11 23 11 15 -1 15 -2 -2 -15z m-278 -46 c26 1 29 -11 6 -29
-10 -9 -37 -12 -77 -10 -34 2 -75 4 -92 4 -16 1 -32 6 -35 11 -8 15 80 35 130
29 25 -3 55 -5 68 -5z m338 -39 c24 0 44 -4 44 -9 0 -11 -112 -21 -124 -11
-12 12 4 32 21 26 8 -3 35 -6 59 -6z m123 -21 c-16 -14 -24 -15 -44 -5 -37 17
-30 26 19 24 42 -2 43 -3 25 -19z m101 1 c0 -5 -4 -10 -10 -10 -5 0 -10 5 -10
10 0 6 5 10 10 10 6 0 10 -4 10 -10z m-3705 -10 c3 -5 -3 -10 -14 -10 -12 0
-21 5 -21 10 0 6 6 10 14 10 8 0 18 -4 21 -10z m100 0 c-3 -5 -17 -10 -30 -10
-13 0 -27 5 -30 10 -4 6 8 10 30 10 22 0 34 -4 30 -10z m95 -4 c0 -19 -23 -33
-28 -18 -2 7 -12 12 -22 12 -10 0 -22 5 -25 10 -4 6 10 10 34 10 29 0 41 -4
41 -14z m115 2 c4 -4 -2 -17 -14 -29 -12 -13 -21 -18 -21 -12 0 5 -12 15 -26
21 -14 7 -23 15 -21 20 6 9 73 9 82 0z m3578 -5 c-7 -2 -19 -2 -25 0 -7 3 -2
5 12 5 14 0 19 -2 13 -5z m-3323 -13 c10 -6 -8 -9 -57 -8 -40 0 -70 5 -67 10
7 11 105 10 124 -2z m110 -5 c0 -2 -7 -5 -15 -9 -9 -3 -15 0 -15 9 0 9 6 12
15 9 8 -4 15 -7 15 -9z m2013 8 c-7 -2 -21 -2 -30 0 -10 3 -4 5 12 5 17 0 24
-2 18 -5z m287 -3 c11 -7 3 -10 -30 -10 -33 0 -41 3 -30 10 8 5 22 10 30 10 8
0 22 -5 30 -10z m50 0 c0 -5 -4 -10 -9 -10 -6 0 -13 5 -16 10 -3 6 1 10 9 10
9 0 16 -4 16 -10z m80 -16 c0 -16 -5 -16 -37 -8 -35 10 -29 31 7 26 17 -2 30
-10 30 -18z m401 0 c8 -10 21 -13 37 -9 13 3 30 1 37 -5 10 -8 19 -8 34 2 16
10 23 10 33 0 18 -18 4 -24 -66 -27 -36 -1 -71 -7 -78 -13 -17 -14 -58 19 -58
47 0 26 41 29 61 5z m-2931 -24 c11 -7 0 -10 -37 -10 -28 0 -55 5 -58 10 -8
13 75 13 95 0z m1616 -20 c8 0 14 -10 14 -24 0 -19 -6 -24 -35 -29 -19 -3 -62
-2 -97 3 -35 6 -66 10 -70 10 -5 0 -8 4 -8 10 0 17 106 41 154 34 16 -2 35 -4
42 -4z m6714 -13 c0 -28 -28 -32 -68 -11 l-27 16 26 -6 c17 -4 31 -1 39 9 18
22 30 18 30 -8z m-5722 -50 c2 -11 -3 -17 -16 -17 -26 0 -34 11 -20 27 14 17
32 12 36 -10z m29 -9 c-3 -8 -6 -5 -6 6 -1 11 2 17 5 13 3 -3 4 -12 1 -19z
m57 6 c4 -10 1 -14 -6 -12 -15 5 -23 28 -10 28 5 0 13 -7 16 -16z m166 7 c0
-12 -21 -19 -38 -13 -11 4 -11 6 0 13 17 11 38 11 38 0z m-80 -7 c11 -4 12 -7
2 -13 -14 -8 -72 -2 -72 8 0 8 50 12 70 5z m120 -8 c6 -8 21 -17 33 -19 12 -2
-3 -4 -34 -4 -54 0 -56 0 -40 17 20 23 26 24 41 6z m5336 -11 c11 -11 20 -12
34 -5 27 15 60 12 60 -4 0 -11 -11 -14 -42 -11 -49 3 -78 13 -78 26 0 13 9 11
26 -6z m2638 -74 c3 -5 40 -12 81 -16 41 -4 75 -11 75 -16 0 -5 -31 -9 -69 -9
-49 0 -72 -4 -81 -15 -15 -18 -37 -20 -43 -2 -2 6 -8 9 -12 5 -13 -13 38 -48
63 -44 34 5 13 -11 -28 -22 -20 -5 -44 -6 -55 -2 -38 14 -101 22 -85 11 11 -8
-11 -11 -78 -11 -69 0 -92 -3 -90 -12 2 -7 -2 -14 -7 -15 -6 -2 -10 7 -10 20
0 25 -8 26 -48 9 -31 -13 -47 -9 -47 14 0 16 -26 19 -35 4 -8 -13 -55 -13 -55
0 0 5 7 7 15 4 9 -4 15 0 15 10 0 10 -6 13 -15 10 -9 -4 -15 0 -15 10 0 11 9
16 29 16 17 0 32 4 35 8 6 9 126 31 166 30 63 -2 251 10 257 16 9 9 31 7 37
-3z m-5746 -28 c-15 -2 -42 -2 -60 0 -18 2 -6 4 27 4 33 0 48 -2 33 -4z m2727
-93 c3 -5 -1 -10 -10 -10 -9 0 -13 5 -10 10 3 6 8 10 10 10 2 0 7 -4 10 -10z
m72 -6 c-3 -3 -12 -4 -19 -1 -8 3 -5 6 6 6 11 1 17 -2 13 -5z m2088 -24 c-3
-5 -21 -10 -38 -10 -24 0 -28 3 -17 10 20 13 63 13 55 0z m-155 -21 c0 -5 5
-9 10 -9 6 0 10 7 10 15 0 17 14 18 45 5 14 -6 15 -9 5 -10 -11 0 -8 -7 10
-22 l25 -21 -136 5 c-169 7 -192 17 -84 38 80 16 115 16 115 -1z m847 -5 c-3
-3 -20 -4 -39 -2 l-33 4 35 10 c31 9 52 2 37 -12z m-1760 0 c-3 -3 -12 -4 -19
-1 -8 3 -5 6 6 6 11 1 17 -2 13 -5z m1836 -1 c-7 -2 -21 -2 -30 0 -10 3 -4 5
12 5 17 0 24 -2 18 -5z m-6976 -69 c-3 -3 -12 -4 -19 -1 -8 3 -5 6 6 6 11 1
17 -2 13 -5z m200 -18 c8 -8 -45 -6 -82 4 -23 6 -17 7 23 5 29 -2 56 -6 59 -9z
m287 5 c3 -5 -5 -11 -17 -13 -39 -8 -257 4 -251 13 7 12 261 12 268 0z m175
-7 c2 -2 -25 -4 -60 -3 -47 1 -57 3 -39 9 22 7 89 3 99 -6z m1054 9 c-7 -2
-19 -2 -25 0 -7 3 -2 5 12 5 14 0 19 -2 13 -5z m-408 -43 c-3 -5 -17 -10 -31
-10 -13 0 -24 5 -24 10 0 6 14 10 31 10 17 0 28 -4 24 -10z m85 0 c0 -5 -6
-10 -14 -10 -8 0 -18 5 -21 10 -3 6 3 10 14 10 12 0 21 -4 21 -10z m900 -26
c0 -2 -7 -4 -15 -4 -8 0 -15 4 -15 10 0 5 7 7 15 4 8 -4 15 -8 15 -10z m200
-14 c0 -13 -20 -13 -40 0 -12 8 -9 10 13 10 15 0 27 -4 27 -10z m563 -17 c-7
-2 -21 -2 -30 0 -10 3 -4 5 12 5 17 0 24 -2 18 -5z m337 -7 c0 -3 -4 -8 -10
-11 -5 -3 -10 -1 -10 4 0 6 5 11 10 11 6 0 10 -2 10 -4z m375 -26 c4 -6 -10
-10 -34 -10 -23 0 -41 5 -41 10 0 6 15 10 34 10 19 0 38 -4 41 -10z m110 0 c3
-5 -3 -10 -14 -10 -12 0 -21 5 -21 10 0 6 6 10 14 10 8 0 18 -4 21 -10z m40 0
c3 -5 -1 -10 -10 -10 -9 0 -13 5 -10 10 3 6 8 10 10 10 2 0 7 -4 10 -10z
m-2082 -27 c-7 -2 -19 -2 -25 0 -7 3 -2 5 12 5 14 0 19 -2 13 -5z m117 -3 c11
-7 4 -10 -25 -10 -22 0 -47 5 -55 10 -11 7 -4 10 25 10 22 0 47 -5 55 -10z
m897 4 c-3 -3 -12 -4 -19 -1 -8 3 -5 6 6 6 11 1 17 -2 13 -5z m-792 -14 c-3
-5 -12 -7 -20 -3 -21 7 -19 13 6 13 11 0 18 -4 14 -10z m228 -7 c-7 -2 -19 -2
-25 0 -7 3 -2 5 12 5 14 0 19 -2 13 -5z m272 -3 c4 -6 -7 -10 -24 -10 -39 0
-48 14 -10 17 15 1 31 -2 34 -7z m141 -11 c6 -10 -17 -12 -40 -3 -9 3 -14 10
-11 14 6 10 43 1 51 -11z m204 -4 c0 -14 -140 -9 -155 6 -6 6 19 9 73 7 51 -1
82 -6 82 -13z m145 -5 c-28 -12 -55 -12 -55 0 0 6 17 10 38 9 30 0 33 -2 17
-9z m-1792 -7 c-7 -2 -19 -2 -25 0 -7 3 -2 5 12 5 14 0 19 -2 13 -5z"/>
<path d="M8201 16994 c0 -11 3 -14 6 -6 3 7 2 16 -1 19 -3 4 -6 -2 -5 -13z"/>
<path d="M7892 16975 c-7 -14 -12 -38 -11 -53 0 -19 4 -13 14 23 15 56 14 67
-3 30z"/>
<path d="M6040 16952 c6 -13 14 -21 18 -18 3 4 -2 14 -12 24 -18 16 -18 16 -6
-6z"/>
<path d="M6566 16953 c-6 -14 -5 -15 5 -6 7 7 10 15 7 18 -3 3 -9 -2 -12 -12z"/>
<path d="M8030 16955 c0 -8 5 -15 10 -15 6 0 10 7 10 15 0 8 -4 15 -10 15 -5
0 -10 -7 -10 -15z"/>
<path d="M8186 16943 c-12 -40 -17 -98 -8 -83 11 17 26 100 19 100 -3 0 -8 -8
-11 -17z"/>
<path d="M6080 16891 c5 -11 15 -23 21 -27 6 -3 3 5 -6 20 -20 30 -30 35 -15
7z"/>
<path d="M8056 16892 c-7 -12 13 -52 26 -52 11 0 9 11 -6 39 -8 15 -16 20 -20
13z"/>
<path d="M5043 16838 c-48 -52 -103 -131 -103 -151 0 -17 26 -41 33 -30 2 4
10 26 17 48 15 48 55 121 83 153 36 39 12 23 -30 -20z"/>
<path d="M6152 16785 c6 -14 15 -25 20 -25 5 0 1 11 -8 25 -9 14 -18 25 -20
25 -2 0 2 -11 8 -25z"/>
<path d="M8650 16745 c0 -8 2 -15 4 -15 2 0 6 7 10 15 3 8 1 15 -4 15 -6 0
-10 -7 -10 -15z"/>
<path d="M5963 16660 c-35 -14 -27 -20 10 -8 17 6 34 13 36 14 8 7 -24 3 -46
-6z"/>
<path d="M5475 16625 c-38 -18 -68 -34 -65 -34 8 -1 139 55 147 62 14 15 -15
5 -82 -28z"/>
<path d="M9217 16647 c-4 -10 -7 -26 -7 -35 1 -15 2 -15 11 1 6 10 9 25 7 35
-3 16 -4 15 -11 -1z"/>
<path d="M4910 16610 c0 -5 5 -10 10 -10 6 0 10 5 10 10 0 6 -4 10 -10 10 -5
0 -10 -4 -10 -10z"/>
<path d="M9522 16450 c0 -14 2 -19 5 -12 2 6 2 18 0 25 -3 6 -5 1 -5 -13z"/>
<path d="M4926 16401 c-9 -13 27 -75 75 -129 80 -91 194 -126 326 -102 98 18
110 29 31 29 -36 -1 -83 4 -105 11 -58 19 -134 71 -180 123 -29 33 -48 47 -66
47 -19 0 -25 4 -21 15 5 11 -1 15 -24 15 -17 0 -33 -4 -36 -9z"/>
<path d="M9076 16364 c-18 -26 -18 -26 2 -15 11 6 22 17 26 26 9 23 -7 17 -28
-11z"/>
<path d="M8963 16323 c9 -2 25 -2 35 0 9 3 1 5 -18 5 -19 0 -27 -2 -17 -5z"/>
<path d="M3570 15104 c0 -8 5 -12 10 -9 6 3 10 10 10 16 0 5 -4 9 -10 9 -5 0
-10 -7 -10 -16z"/>
<path d="M3435 15090 c3 -5 8 -10 11 -10 2 0 4 5 4 10 0 6 -5 10 -11 10 -5 0
-7 -4 -4 -10z"/>
<path d="M5980 10182 c0 -13 -53 -29 -99 -30 -42 -1 -59 -7 -49 -17 2 -3 25
-5 49 -5 24 1 56 1 72 1 15 0 27 4 27 9 0 6 6 10 14 10 20 0 28 27 10 34 -20
8 -24 8 -24 -2z"/>
<path d="M6065 10169 c-18 -9 -18 -9 3 -5 12 2 22 0 22 -5 0 -13 34 -11 66 3
22 10 28 10 39 -5 13 -18 32 -7 21 12 -8 12 -125 11 -151 0z"/>
<path d="M5585 10160 c-18 -8 -17 -9 8 -9 16 -1 26 3 22 9 -3 6 -7 10 -8 9 -1
0 -11 -4 -22 -9z"/>
<path d="M6280 10160 c0 -5 7 -10 16 -10 8 0 12 5 9 10 -3 6 -10 10 -16 10 -5
0 -9 -4 -9 -10z"/>
<path d="M5085 10150 c-3 -5 -2 -10 4 -10 5 0 13 5 16 10 3 6 2 10 -4 10 -5 0
-13 -4 -16 -10z"/>
<path d="M5715 10150 c3 -5 26 -10 51 -10 24 0 44 5 44 10 0 6 -23 10 -51 10
-31 0 -48 -4 -44 -10z"/>
<path d="M6460 10145 c0 -18 21 -20 39 -2 11 10 14 10 18 0 5 -14 56 -16 87
-4 18 7 18 8 -5 14 -13 4 -50 7 -81 7 -45 0 -58 -3 -58 -15z"/>
<path d="M6662 10140 c15 -4 35 -15 44 -24 14 -15 12 -16 -24 -16 -45 0 -72
-8 -72 -21 0 -5 38 -9 83 -9 70 0 88 -3 107 -20 l23 -20 19 20 c22 23 19 23
52 10 14 -5 28 -5 31 -1 5 9 -42 22 -80 22 -65 1 -101 11 -114 31 -11 17 -11
22 1 29 8 5 -8 8 -42 8 -45 -1 -50 -2 -28 -9z"/>
<path d="M6770 10140 c0 -11 40 -14 185 -12 128 2 135 4 50 12 -109 11 -235
11 -235 0z"/>
<path d="M6015 10130 c11 -5 38 -9 60 -9 31 0 36 2 20 9 -11 5 -38 9 -60 9
-31 0 -36 -2 -20 -9z"/>
<path d="M7140 10131 c14 -5 38 -9 53 -10 32 -1 33 -26 2 -26 -10 0 -20 -5
-22 -11 -2 -7 41 -11 132 -12 83 -1 135 2 135 8 0 6 -7 10 -15 10 -27 0 -16
17 18 27 26 8 17 10 -53 9 -47 0 -128 2 -180 6 -56 4 -85 4 -70 -1z m171 -26
c0 -13 -41 -19 -41 -7 0 11 20 22 33 18 5 -1 8 -6 8 -11z m72 -2 c-7 -2 -19
-2 -25 0 -7 3 -2 5 12 5 14 0 19 -2 13 -5z"/>
<path d="M6526 10111 c-4 -7 -5 -15 -2 -18 9 -9 19 4 14 18 -4 11 -6 11 -12 0z"/>
<path d="M6765 10110 c-3 -5 -1 -10 4 -10 6 0 11 5 11 10 0 6 -2 10 -4 10 -3
0 -8 -4 -11 -10z"/>
<path d="M6971 10111 c-12 -8 -12 -12 -2 -25 19 -23 31 -20 31 9 0 27 -6 30
-29 16z"/>
<path d="M7648 10113 c6 -2 18 -2 25 0 6 3 1 5 -13 5 -14 0 -19 -2 -12 -5z"/>
<path d="M7752 10108 c6 -18 25 -20 31 -3 5 10 0 15 -14 15 -12 0 -19 -5 -17
-12z"/>
<path d="M7910 10095 c7 -8 18 -15 24 -15 6 0 5 4 -3 9 -11 7 -11 9 0 14 8 3
3 6 -10 6 -20 1 -21 -1 -11 -14z"/>
<path d="M8055 10090 c-4 -7 7 -8 33 -4 25 4 42 2 46 -5 10 -15 23 -14 30 4 4
12 -5 15 -49 15 -29 0 -57 -5 -60 -10z"/>
<path d="M8190 10086 c0 -8 4 -17 9 -20 11 -7 33 18 24 27 -12 12 -33 7 -33
-7z"/>
<path d="M7031 10081 c-9 -6 -11 -16 -6 -27 6 -16 8 -16 13 -4 2 8 9 21 15 28
11 14 -1 16 -22 3z"/>
<path d="M7619 10083 c-1 -5 -1 -11 -1 -15 1 -3 -5 -12 -13 -18 -12 -10 -15
-9 -15 4 0 9 -1 16 -2 17 -2 0 -29 3 -61 5 -38 3 -56 1 -52 -6 3 -5 14 -10 25
-10 24 0 33 -27 12 -39 -28 -16 -4 -26 30 -13 22 8 35 8 44 1 20 -16 59 -7 58
14 -1 9 4 17 12 17 7 0 11 -6 8 -14 -3 -8 -1 -17 5 -21 6 -3 11 -1 11 5 0 7
15 9 40 6 29 -4 40 -1 40 9 0 9 -20 15 -60 20 -62 7 -69 12 -48 33 9 9 7 12
-10 12 -12 0 -23 -3 -23 -7z"/>
<path d="M8260 10080 c-24 -8 -24 -8 5 -9 17 0 54 -3 83 -7 33 -4 52 -3 52 4
0 16 -42 22 -59 9 -11 -9 -15 -9 -18 1 -5 13 -25 14 -63 2z"/>
<path d="M8703 10074 c11 -11 67 -14 67 -4 0 6 -16 10 -37 10 -20 0 -34 -3
-30 -6z"/>
<path d="M6560 10060 c0 -5 7 -10 15 -10 8 0 15 5 15 10 0 6 -7 10 -15 10 -8
0 -15 -4 -15 -10z"/>
<path d="M8888 10063 c50 -2 92 -8 92 -13 0 -6 4 -10 8 -10 5 0 9 7 9 15 0 12
-17 15 -101 13 l-101 -2 93 -3z"/>
<path d="M6495 10049 l-50 -6 43 -1 c23 -1 42 -6 42 -12 0 -12 27 -13 34 -1
11 17 -20 26 -69 20z"/>
<path d="M6685 10040 c-4 -6 12 -10 40 -10 28 0 44 4 40 10 -3 6 -21 10 -40
10 -19 0 -37 -4 -40 -10z"/>
<path d="M7935 10040 c-7 -12 27 -22 37 -12 6 6 1 12 -11 15 -12 3 -23 2 -26
-3z"/>
<path d="M8395 10034 c-11 -8 -28 -13 -37 -10 -10 2 -18 0 -18 -5 0 -10 17
-12 160 -15 58 -1 112 -3 120 -5 8 -2 16 1 18 6 2 6 -7 13 -20 16 -13 3 -22
11 -20 17 1 7 -9 12 -24 12 -16 0 -23 -4 -18 -11 5 -9 -4 -10 -32 -4 -76 14
-109 14 -129 -1z"/>
<path d="M8658 10043 c7 -3 16 -2 19 1 4 3 -2 6 -13 5 -11 0 -14 -3 -6 -6z"/>
<path d="M6960 10024 c0 -10 7 -14 22 -12 32 5 35 28 4 28 -17 0 -26 -5 -26
-16z"/>
<path d="M7078 10033 c6 -2 18 -2 25 0 6 3 1 5 -13 5 -14 0 -19 -2 -12 -5z"/>
<path d="M7158 10028 c9 -9 15 -9 24 0 9 9 7 12 -12 12 -19 0 -21 -3 -12 -12z"/>
<path d="M8013 10033 c9 -2 25 -2 35 0 9 3 1 5 -18 5 -19 0 -27 -2 -17 -5z"/>
<path d="M8142 10028 c3 -7 15 -14 29 -16 23 -2 23 -2 5 13 -24 18 -39 20 -34
3z"/>
<path d="M8695 10030 c3 -5 10 -10 16 -10 5 0 9 5 9 10 0 6 -7 10 -16 10 -8 0
-12 -4 -9 -10z"/>
<path d="M8760 10030 c0 -5 7 -10 15 -10 8 0 15 5 15 10 0 6 -7 10 -15 10 -8
0 -15 -4 -15 -10z"/>
<path d="M8932 10029 c3 -8 32 -17 79 -24 85 -11 269 -8 269 6 0 5 -39 9 -87
10 -172 2 -239 5 -252 13 -9 6 -12 4 -9 -5z"/>
<path d="M9855 10023 c-19 -14 -16 -15 44 -9 35 3 76 7 90 7 19 1 15 3 -14 10
-61 12 -98 10 -120 -8z"/>
<path d="M7278 10023 c-28 -7 -21 -23 11 -29 20 -4 28 -11 24 -20 -4 -10 3
-14 21 -14 14 0 26 5 26 10 0 6 -7 10 -15 10 -9 0 -14 8 -12 22 2 24 -18 31
-55 21z"/>
<path d="M8860 10020 c0 -5 9 -10 21 -10 11 0 17 5 14 10 -3 6 -13 10 -21 10
-8 0 -14 -4 -14 -10z"/>
<path d="M7426 10012 c-8 -13 11 -35 23 -28 16 10 14 36 -3 36 -8 0 -17 -4
-20 -8z"/>
<path d="M8278 10013 c7 -3 16 -2 19 1 4 3 -2 6 -13 5 -11 0 -14 -3 -6 -6z"/>
<path d="M10125 10011 c3 -6 -36 -12 -92 -15 -54 -2 -106 -5 -115 -6 -27 -2
-21 -20 6 -20 13 0 27 -8 31 -17 6 -17 7 -17 19 -1 9 13 24 15 66 12 80 -6
105 -10 116 -16 11 -7 41 12 42 27 0 6 11 13 24 17 19 5 18 6 -12 8 l-35 3 40
7 c35 6 32 7 -28 9 -40 0 -66 -3 -62 -8z m3 -28 c-10 -2 -26 -2 -35 0 -10 3
-2 5 17 5 19 0 27 -2 18 -5z"/>
<path d="M10330 10012 c0 -12 176 -21 205 -11 12 5 -14 8 -61 8 -45 1 -96 4
-113 7 -18 4 -31 2 -31 -4z"/>
<path d="M5120 10000 c0 -5 11 -10 25 -10 14 0 25 5 25 10 0 6 -11 10 -25 10
-14 0 -25 -4 -25 -10z"/>
<path d="M8066 10001 c-4 -7 -5 -15 -2 -18 9 -9 19 4 14 18 -4 11 -6 11 -12 0z"/>
<path d="M9328 10001 c7 -4 34 -8 60 -9 35 -1 42 1 27 8 -26 11 -105 13 -87 1z"/>
<path d="M9613 10003 c-24 -9 -13 -23 18 -23 20 0 29 4 27 13 -5 13 -26 18
-45 10z"/>
<path d="M6665 9990 c-3 -5 1 -10 9 -10 9 0 16 5 16 10 0 6 -4 10 -9 10 -6 0
-13 -4 -16 -10z"/>
<path d="M8344 9980 c3 -24 7 -25 71 -28 38 -2 73 2 79 8 11 11 8 12 -73 11
-40 0 -58 5 -68 17 -11 15 -12 14 -9 -8z"/>
<path d="M9483 9993 c9 -2 23 -2 30 0 6 3 -1 5 -18 5 -16 0 -22 -2 -12 -5z"/>
<path d="M9760 9991 c0 -6 -12 -11 -27 -11 -22 0 -25 -2 -13 -10 8 -5 28 -10
43 -10 21 0 28 4 25 17 -3 18 -28 31 -28 14z"/>
<path d="M10300 9986 c0 -18 6 -19 35 -6 11 5 15 9 8 9 -6 1 -18 4 -27 7 -11
4 -16 1 -16 -10z"/>
<path d="M10376 9980 c7 -7 19 -7 35 -1 23 9 22 10 -10 10 -24 1 -32 -2 -25
-9z"/>
<path d="M5923 9963 c9 -2 23 -2 30 0 6 3 -1 5 -18 5 -16 0 -22 -2 -12 -5z"/>
<path d="M6044 9945 c-14 -22 -53 -38 -40 -17 2 4 -13 6 -35 4 -48 -5 -52 -22
-5 -22 19 0 38 -4 41 -10 3 -5 35 -10 71 -10 50 0 64 3 64 15 0 10 -10 15 -30
15 -32 0 -40 14 -14 24 8 3 12 10 9 16 -11 18 -44 10 -61 -15z"/>
<path d="M7676 9955 c7 -17 13 -18 32 -6 11 7 10 10 -3 15 -26 10 -35 7 -29
-9z"/>
<path d="M8545 9961 c-3 -5 -1 -12 5 -16 5 -3 10 1 10 9 0 18 -6 21 -15 7z"/>
<path d="M9085 9960 c3 -5 13 -10 21 -10 8 0 12 5 9 10 -3 6 -13 10 -21 10 -8
0 -12 -4 -9 -10z"/>
<path d="M6143 9953 c-24 -8 -13 -23 17 -23 17 0 30 4 30 9 0 11 -30 19 -47
14z"/>
<path d="M6200 9951 c0 -5 9 -7 20 -4 11 3 20 7 20 9 0 2 -9 4 -20 4 -11 0
-20 -4 -20 -9z"/>
<path d="M6270 9945 c0 -17 2 -18 24 -9 23 9 20 24 -4 24 -11 0 -20 -7 -20
-15z"/>
<path d="M6343 9946 c-26 -12 -29 -31 -9 -51 12 -12 15 -11 19 5 3 12 14 20
26 20 24 0 27 10 9 28 -14 14 -15 14 -45 -2z"/>
<path d="M7220 9945 c0 -8 5 -15 10 -15 6 0 10 7 10 15 0 8 -4 15 -10 15 -5 0
-10 -7 -10 -15z"/>
<path d="M7558 9948 c9 -9 15 -9 24 0 9 9 7 12 -12 12 -19 0 -21 -3 -12 -12z"/>
<path d="M7608 9953 c6 -2 18 -2 25 0 6 3 1 5 -13 5 -14 0 -19 -2 -12 -5z"/>
<path d="M6598 9938 c9 -9 15 -9 24 0 9 9 7 12 -12 12 -19 0 -21 -3 -12 -12z"/>
<path d="M6998 9943 c7 -3 16 -2 19 1 4 3 -2 6 -13 5 -11 0 -14 -3 -6 -6z"/>
<path d="M7275 9940 c3 -5 15 -10 26 -10 10 0 19 5 19 10 0 6 -12 10 -26 10
-14 0 -23 -4 -19 -10z"/>
<path d="M9354 9941 c3 -5 15 -7 26 -4 28 7 25 13 -6 13 -14 0 -23 -4 -20 -9z"/>
<path d="M9454 9938 c-9 -15 56 -37 84 -28 15 4 40 11 56 15 15 3 25 9 22 13
-9 8 -157 9 -162 0z"/>
<path d="M7933 9933 c9 -2 17 -11 17 -19 0 -10 11 -14 38 -13 28 2 31 3 10 6
-14 2 -32 11 -38 19 -7 8 -20 13 -29 13 -13 -1 -13 -2 2 -6z"/>
<path d="M7338 9923 c7 -3 16 -2 19 1 4 3 -2 6 -13 5 -11 0 -14 -3 -6 -6z"/>
<path d="M8314 9921 c10 -15 86 -18 86 -4 0 9 -15 13 -46 13 -25 0 -43 -4 -40
-9z"/>
<path d="M8582 9921 c2 -7 7 -12 11 -12 12 1 9 15 -3 20 -7 2 -11 -2 -8 -8z"/>
<path d="M8662 9898 c-12 -32 -3 -56 16 -44 9 5 10 62 1 71 -3 2 -10 -10 -17
-27z"/>
<path d="M9671 9921 c-9 -6 -3 -10 20 -13 44 -7 110 2 103 13 -7 11 -105 11
-123 0z"/>
<path d="M8172 9911 c-11 -7 -10 -10 3 -15 20 -7 38 1 30 15 -7 11 -16 11 -33
0z"/>
<path d="M8500 9910 c0 -5 7 -10 15 -10 8 0 15 5 15 10 0 6 -7 10 -15 10 -8 0
-15 -4 -15 -10z"/>
<path d="M8845 9911 c-8 -15 35 -35 47 -23 6 6 7 15 4 21 -9 14 -43 14 -51 2z"/>
<path d="M6680 9901 c-17 -5 -21 -9 -13 -14 12 -7 53 7 53 18 0 6 -7 5 -40 -4z"/>
<path d="M6811 9892 c-9 -18 -6 -19 49 -20 60 -1 82 13 35 23 -14 3 -36 7 -50
10 -17 4 -27 0 -34 -13z"/>
<path d="M7760 9899 c0 -5 5 -7 10 -4 6 3 10 8 10 11 0 2 -4 4 -10 4 -5 0 -10
-5 -10 -11z"/>
<path d="M6952 9891 c-11 -7 -11 -9 2 -14 10 -4 16 -1 16 8 0 17 -1 17 -18 6z"/>
<path d="M8255 9890 c-3 -5 -3 -10 2 -10 4 0 19 -3 33 -7 22 -6 24 -5 11 10
-15 19 -37 22 -46 7z"/>
<path d="M9587 9888 c-6 -4 1 -10 16 -13 30 -8 37 -25 10 -25 -13 0 -14 -3 -5
-12 16 -16 15 -28 -3 -28 -7 0 -19 8 -24 18 -9 15 -10 15 -11 -5 0 -12 -3 -28
-6 -37 -5 -12 2 -18 25 -22 17 -4 31 -10 31 -15 0 -5 5 -9 10 -9 6 0 10 7 10
15 0 10 10 15 30 15 20 0 30 -5 30 -15 0 -20 39 -19 47 1 7 20 -15 36 -41 30
-26 -7 -46 11 -46 40 0 18 10 28 43 42 l42 19 -74 4 c-40 2 -78 1 -84 -3z"/>
<path d="M7250 9879 c0 -5 11 -9 25 -9 14 0 25 2 25 4 0 2 -11 6 -25 8 -14 3
-25 1 -25 -3z"/>
<path d="M7020 9870 c25 -8 107 -13 99 -6 -2 2 -31 6 -64 9 -37 3 -51 2 -35
-3z"/>
<path d="M6478 9863 c7 -3 16 -2 19 1 4 3 -2 6 -13 5 -11 0 -14 -3 -6 -6z"/>
<path d="M7420 9860 c-12 -8 -11 -10 8 -10 12 0 22 5 22 10 0 13 -11 13 -30 0z"/>
<path d="M8870 9860 c0 -5 21 -10 47 -10 55 0 54 5 -4 14 -27 4 -43 2 -43 -4z"/>
<path d="M7008 9853 c7 -3 16 -2 19 1 4 3 -2 6 -13 5 -11 0 -14 -3 -6 -6z"/>
<path d="M7620 9840 c0 -5 7 -10 15 -10 8 0 15 5 15 10 0 6 -7 10 -15 10 -8 0
-15 -4 -15 -10z"/>
<path d="M7845 9840 c-30 -12 -4 -18 99 -23 85 -3 88 -3 51 10 -21 7 -50 12
-64 11 -14 -1 -35 1 -46 4 -11 4 -29 3 -40 -2z"/>
<path d="M9680 9840 c0 -5 12 -10 28 -10 21 0 24 2 12 10 -20 13 -40 13 -40 0z"/>
<path d="M6995 9830 c3 -5 10 -10 16 -10 5 0 9 5 9 10 0 6 -7 10 -16 10 -8 0
-12 -4 -9 -10z"/>
<path d="M7080 9829 c64 -11 120 -11 120 1 0 6 -33 9 -82 9 -75 -1 -78 -2 -38
-10z"/>
<path d="M7215 9830 c3 -5 15 -10 26 -10 10 0 19 5 19 10 0 6 -12 10 -26 10
-14 0 -23 -4 -19 -10z"/>
<path d="M9793 9833 c-7 -2 -13 -9 -13 -14 0 -6 5 -7 11 -3 6 3 14 2 18 -4 3
-5 24 -12 46 -13 32 -3 40 0 43 14 3 16 1 17 -18 5 -18 -11 -23 -11 -34 5 -13
17 -29 20 -53 10z"/>
<path d="M8070 9820 c-12 -7 -12 -12 -3 -21 10 -10 14 -9 19 5 8 22 2 27 -16
16z"/>
<path d="M8158 9823 c-56 -9 -19 -33 50 -33 17 0 32 4 32 9 0 6 16 7 36 4 29
-5 36 -3 32 8 -5 14 -92 21 -150 12z"/>
<path d="M8785 9820 c-3 -5 -2 -17 3 -26 8 -14 10 -14 25 1 10 9 15 21 12 26
-8 12 -32 12 -40 -1z"/>
<path d="M8855 9804 c11 -8 19 -18 17 -22 -2 -4 5 -9 14 -11 16 -3 17 -2 1 14
-9 9 -17 21 -17 26 0 5 -8 9 -17 9 -16 -1 -16 -2 2 -16z"/>
<path d="M9120 9810 c0 -5 4 -10 9 -10 5 0 18 -3 28 -6 16 -6 16 -5 -2 9 -23
19 -35 21 -35 7z"/>
<path d="M10380 9785 c-10 -12 -9 -16 4 -21 24 -9 47 3 40 21 -8 19 -28 19
-44 0z"/>
<path d="M10489 9784 c-25 -30 30 -53 88 -38 31 8 17 34 -18 34 -16 0 -29 5
-29 10 0 16 -26 12 -41 -6z"/>
<path d="M10656 9782 c-3 -5 1 -18 9 -28 14 -18 14 -18 15 3 0 23 -15 39 -24
25z"/>
<path d="M8957 9769 c7 -7 15 -10 18 -7 3 3 -2 9 -12 12 -14 6 -15 5 -6 -5z"/>
<path d="M9080 9770 c0 -5 5 -10 11 -10 5 0 7 5 4 10 -3 6 -8 10 -11 10 -2 0
-4 -4 -4 -10z"/>
<path d="M10015 9730 c-3 -5 1 -10 9 -10 9 0 16 5 16 10 0 6 -4 10 -9 10 -6 0
-13 -4 -16 -10z"/>
<path d="M12410 13840 c0 -5 5 -10 10 -10 6 0 10 5 10 10 0 6 -4 10 -10 10 -5
0 -10 -4 -10 -10z"/>
<path d="M13050 9770 c-11 -7 -4 -10 28 -10 23 0 42 5 42 10 0 13 -50 13 -70
0z"/>
<path d="M12968 9743 c7 -3 16 -2 19 1 4 3 -2 6 -13 5 -11 0 -14 -3 -6 -6z"/>
<path d="M13100 9741 c0 -7 19 -11 50 -11 32 0 50 -4 50 -12 0 -9 3 -9 12 0
17 17 7 23 -56 29 -39 4 -56 2 -56 -6z"/>
<path d="M6323 17916 c4 -10 7 -20 7 -22 0 -2 4 -4 9 -4 14 0 6 33 -9 38 -9 3
-11 -1 -7 -12z"/>
<path d="M5870 17720 c-12 -8 -11 -10 8 -10 12 0 22 5 22 10 0 13 -11 13 -30
0z"/>
<path d="M5555 17689 c-33 -17 -35 -19 -11 -14 24 5 27 3 22 -11 -6 -15 -4
-15 10 -3 11 9 12 15 5 17 -8 3 -5 9 6 18 24 18 16 16 -32 -7z"/>
<path d="M9288 17698 c5 -5 16 -8 23 -6 8 3 3 7 -10 11 -17 4 -21 3 -13 -5z"/>
<path d="M9335 17679 c4 -5 15 -9 26 -9 10 0 19 -4 19 -9 0 -5 23 -17 50 -27
28 -10 59 -26 70 -36 11 -10 21 -14 25 -8 3 5 -20 22 -52 37 -32 15 -60 30
-63 34 -8 11 -81 29 -75 18z"/>
<path d="M5395 17610 c-8 -13 5 -13 25 0 13 8 13 10 -2 10 -9 0 -20 -4 -23
-10z"/>
<path d="M9327 17583 c-4 -3 -7 -12 -7 -20 0 -11 5 -11 20 -3 11 6 20 15 20
20 0 11 -23 13 -33 3z"/>
<path d="M5320 17570 c-8 -5 -12 -12 -9 -15 4 -3 12 1 19 10 14 17 11 19 -10
5z"/>
<path d="M5388 17563 c7 -3 16 -2 19 1 4 3 -2 6 -13 5 -11 0 -14 -3 -6 -6z"/>
<path d="M5250 17530 c-18 -12 -2 -12 25 0 13 6 15 9 5 9 -8 0 -22 -4 -30 -9z"/>
<path d="M5295 17510 c-3 -5 -12 -7 -20 -3 -16 5 -21 -12 -7 -21 15 -9 52 6
52 20 0 16 -16 19 -25 4z"/>
<path d="M5220 17490 c-13 -8 -12 -10 3 -10 9 0 17 5 17 10 0 12 -1 12 -20 0z"/>
<path d="M5075 17423 c-24 -15 -31 -23 -18 -20 12 3 27 -1 34 -9 19 -24 30
-16 24 19 -4 21 -2 27 4 18 5 -7 15 -11 22 -9 10 3 8 7 -6 15 -16 8 -29 4 -60
-14z"/>
<path d="M10946 16555 c4 -8 10 -12 15 -9 11 6 2 24 -11 24 -5 0 -7 -7 -4 -15z"/>
<path d="M11370 16100 c0 -5 5 -10 11 -10 5 0 7 5 4 10 -3 6 -8 10 -11 10 -2
0 -4 -4 -4 -10z"/>
<path d="M11476 15967 c3 -10 9 -15 12 -12 3 3 0 11 -7 18 -10 9 -11 8 -5 -6z"/>
<path d="M11640 15731 c0 -6 4 -13 10 -16 6 -3 7 1 4 9 -7 18 -14 21 -14 7z"/>
<path d="M11755 15529 c-4 -6 -4 -13 -1 -16 3 -4 6 -1 6 7 0 10 4 10 18 -1 15
-13 16 -12 3 4 -16 20 -18 20 -26 6z"/>
<path d="M11990 15135 c0 -5 5 -17 10 -25 5 -8 10 -10 10 -5 0 6 -5 17 -10 25
-5 8 -10 11 -10 5z"/>
<path d="M12083 14925 c0 -8 4 -15 9 -15 4 0 8 4 8 9 0 6 -4 12 -8 15 -5 3 -9
-1 -9 -9z"/>
<path d="M12100 14887 c0 -9 -4 -17 -10 -17 -18 0 -10 -18 10 -23 17 -4 19 -2
14 21 -8 33 -14 41 -14 19z"/>
<path d="M12200 14658 c0 -9 5 -20 10 -23 13 -8 13 5 0 25 -8 13 -10 13 -10
-2z"/>
<path d="M12264 14451 c10 -70 18 -94 27 -79 6 8 9 -3 10 -32 0 -34 2 -40 9
-25 5 12 9 14 9 6 1 -8 3 -12 6 -9 7 7 -30 119 -39 118 -4 -1 -10 1 -13 4 -4
3 -1 6 5 6 7 0 12 5 12 11 0 5 -5 7 -11 3 -8 -4 -9 0 -4 15 4 13 2 21 -5 21
-8 0 -10 -13 -6 -39z"/>
<path d="M12331 14284 c0 -11 3 -14 6 -6 3 7 2 16 -1 19 -3 4 -6 -2 -5 -13z"/>
<path d="M12345 14230 c10 -46 23 -80 31 -80 3 0 3 8 -1 18 -4 9 -9 31 -12 47
-2 17 -9 35 -15 40 -7 7 -8 -1 -3 -25z"/>
<path d="M13005 7031 c-3 -11 -5 -107 -5 -213 1 -106 2 -580 1 -1053 -1 -473
2 -996 5 -1161 l6 -301 -23 -22 c-12 -11 -29 -21 -36 -21 -7 0 -17 -9 -23 -20
-9 -18 -5 -28 33 -71 l44 -51 8 -121 c9 -139 17 -1215 18 -2412 1 -734 -1
-867 -14 -915 -3 -10 3 -15 15 -15 19 0 20 13 23 360 4 480 5 1204 1 2260 -2
694 0 877 10 907 11 30 11 46 -2 95 -9 39 -14 116 -15 238 0 99 -2 405 -5 680
-14 1283 -23 1845 -30 1853 -2 2 -7 -6 -11 -17z"/>
<path d="M1927 4163 c-4 -3 -7 -59 -7 -124 0 -136 -11 -124 115 -133 322 -23
499 -37 550 -46 33 -5 157 -14 275 -20 118 -6 267 -15 330 -20 63 -6 171 -12
240 -15 162 -6 561 -33 670 -45 247 -28 648 -58 775 -58 78 0 328 -21 450 -37
61 -8 135 -16 165 -19 105 -7 346 -26 505 -41 88 -8 223 -19 300 -25 77 -6
187 -14 245 -20 293 -25 383 -30 513 -29 78 0 185 -4 237 -10 141 -16 189 -19
480 -36 146 -8 339 -20 430 -25 91 -5 248 -12 350 -15 194 -6 251 -8 575 -25
110 -5 313 -14 450 -20 138 -6 324 -15 415 -20 91 -5 262 -12 380 -15 118 -3
325 -12 460 -20 222 -13 568 -29 885 -40 66 -3 215 -9 330 -15 555 -26 655
-30 728 -30 l77 0 0 33 c1 17 3 64 6 104 6 70 5 72 -18 77 -24 5 -342 21 -613
31 -186 7 -339 14 -445 20 -130 7 -319 15 -485 20 -88 3 -216 7 -285 10 -426
18 -638 26 -900 35 -162 5 -407 14 -545 20 -420 16 -537 20 -900 30 -192 5
-496 15 -675 21 -179 6 -439 8 -580 5 -237 -6 -259 -5 -317 13 -99 32 -251 53
-543 76 -41 3 -111 10 -155 15 -44 6 -163 17 -265 25 -102 9 -207 18 -235 20
-239 24 -806 76 -910 85 -71 6 -170 15 -220 20 -49 5 -128 12 -175 15 -128 9
-308 24 -475 40 -210 20 -565 52 -790 70 -104 8 -230 20 -280 25 -277 30 -392
42 -500 50 -66 5 -169 13 -230 19 -342 34 -377 36 -388 24z m429 -115 c5 -3
63 -9 129 -12 130 -7 195 -13 238 -22 15 -3 34 -1 41 5 10 8 16 8 25 -2 7 -9
40 -14 103 -16 51 -1 100 -3 108 -6 17 -5 194 -24 279 -31 31 -2 81 -6 111
-10 30 -3 72 -7 92 -9 20 -1 70 -6 110 -10 40 -5 100 -10 133 -11 33 -2 78 -6
100 -8 22 -2 92 -7 155 -11 63 -4 119 -10 124 -13 5 -3 34 -6 65 -8 31 -1 106
-7 166 -14 61 -7 153 -14 205 -15 94 -4 117 -5 300 -25 52 -6 140 -12 196 -14
56 -1 106 -6 111 -9 6 -4 23 -5 39 -3 16 2 81 -3 144 -10 63 -7 201 -20 305
-28 429 -35 553 -47 613 -57 35 -6 98 -12 141 -14 43 -1 83 -5 89 -9 6 -3 15
1 20 11 8 13 13 14 24 6 15 -13 219 -45 264 -41 16 1 34 -1 40 -4 6 -4 37 -8
70 -9 32 -2 81 -9 109 -16 27 -8 69 -19 92 -26 57 -15 43 -31 -21 -23 -46 6
-202 18 -586 46 -74 5 -198 16 -275 24 -77 8 -198 20 -270 26 -252 20 -361 29
-440 35 -44 4 -138 15 -210 25 -133 20 -339 37 -545 46 -63 2 -167 9 -230 14
-63 6 -142 13 -175 16 -33 3 -92 11 -130 19 -39 8 -140 19 -224 25 -85 5 -193
14 -240 20 -89 10 -172 16 -351 25 -152 8 -835 67 -990 85 -47 5 -142 15 -212
21 -71 7 -128 14 -128 15 0 27 16 31 144 29 73 -1 136 -4 142 -7z m5754 -453
c41 -2 235 -6 430 -9 344 -6 503 -11 660 -21 41 -3 167 -7 280 -10 113 -3 218
-8 234 -12 15 -3 39 1 53 8 20 11 29 10 56 -4 27 -14 76 -18 307 -22 151 -3
298 -8 325 -10 28 -3 181 -9 340 -15 160 -5 328 -12 375 -15 47 -3 162 -7 255
-10 94 -3 244 -10 335 -15 91 -6 239 -12 330 -15 91 -3 221 -8 290 -11 69 -3
175 -8 235 -10 154 -6 169 -11 173 -58 l3 -38 -43 5 c-56 8 -216 16 -448 22
-102 3 -205 7 -230 10 -25 2 -150 7 -278 10 -127 3 -271 8 -320 10 -48 3 -206
9 -352 15 -365 14 -431 19 -447 31 -8 7 -26 8 -45 4 -50 -11 -130 -12 -273 -4
-71 4 -238 10 -370 13 -132 4 -262 9 -290 11 -27 3 -194 10 -370 16 -375 12
-410 14 -745 28 -140 7 -356 16 -480 21 -278 11 -706 38 -820 50 -47 6 -88 10
-92 10 -5 0 -8 4 -8 10 0 5 46 11 103 13 108 4 701 -1 827 -8z"/>
<path d="M3512 3431 c-9 -6 -14 -33 -15 -84 -3 -109 3 -114 131 -98 69 8 107
9 126 1 15 -5 45 -10 66 -10 22 0 46 -7 58 -17 11 -10 75 -126 142 -258 67
-132 131 -256 141 -275 10 -19 31 -64 47 -100 17 -36 44 -95 60 -132 17 -38
35 -68 40 -68 4 0 20 17 33 38 14 20 40 58 59 84 31 43 33 52 31 115 -1 37 -7
73 -12 79 -5 6 -7 18 -4 26 3 8 -6 31 -20 51 -13 21 -27 48 -31 62 -3 13 -12
29 -20 36 -11 9 -11 15 -3 25 8 10 3 21 -25 47 -20 19 -36 42 -36 51 0 10 -13
21 -29 27 -19 7 -28 16 -25 24 3 8 -6 27 -20 42 -15 15 -29 35 -32 45 -2 9
-16 24 -30 33 -18 12 -23 20 -16 27 8 8 -9 32 -56 81 -37 39 -77 81 -89 93
-27 29 -30 30 -253 49 -215 18 -201 17 -218 6z m318 -82 c95 -9 119 -14 138
-32 28 -26 127 -191 209 -346 18 -35 37 -69 42 -75 5 -6 27 -45 48 -86 22 -41
60 -107 86 -147 26 -39 47 -75 47 -79 0 -13 -62 -104 -70 -104 -5 0 -45 73
-90 163 -45 89 -86 167 -91 174 -6 6 -50 89 -98 185 -48 95 -94 184 -102 197
-21 36 -60 69 -94 80 -55 17 -195 34 -234 27 -45 -7 -63 7 -50 41 9 25 5 25
259 2z"/>
<path d="M4744 3277 c-22 -20 -46 -48 -54 -64 -8 -15 -37 -59 -66 -98 -106
-145 -186 -277 -180 -299 10 -36 66 -126 79 -126 6 0 39 25 72 55 95 86 105
97 105 116 0 10 5 21 10 24 6 3 10 14 10 24 0 10 9 26 20 36 11 10 20 27 20
39 0 11 13 34 28 51 29 31 71 140 59 152 -4 3 -7 -1 -7 -10 0 -9 -4 -17 -8
-17 -4 0 -15 -12 -24 -27 -10 -16 -44 -57 -78 -93 -61 -66 -160 -200 -160
-218 0 -5 -9 -17 -21 -28 -20 -18 -21 -18 -35 1 -8 10 -14 25 -14 34 0 21 114
186 266 385 l37 49 96 -7 c53 -4 120 -9 148 -10 93 -6 120 -15 127 -39 9 -35
8 -37 -31 -37 -41 0 -96 -28 -111 -57 -5 -10 -13 -43 -18 -73 -9 -62 -8 -656
1 -711 10 -58 51 -100 105 -105 42 -4 43 -3 13 6 -18 6 -35 15 -38 21 -13 21
-32 183 -25 214 4 18 3 40 -2 49 -5 10 -5 29 1 50 5 19 7 37 5 39 -8 8 -11
138 -3 143 5 3 9 19 9 37 0 99 26 266 46 288 8 8 14 20 14 26 0 6 14 13 30 17
l31 6 -3 62 c-3 62 -4 63 -41 82 -23 11 -76 21 -135 26 -53 5 -129 12 -168 16
l-71 7 -39 -36z"/>
<path d="M4876 3068 c-12 -105 -16 -178 -24 -453 -5 -193 -12 -287 -20 -303
-19 -33 -57 -54 -94 -50 -33 3 -33 2 -42 -50 -6 -35 -5 -61 2 -76 11 -25 16
-26 267 -41 28 -1 84 -6 125 -9 43 -4 81 -3 89 2 17 12 21 123 5 129 -8 2 -10
-12 -6 -47 5 -59 17 -56 -163 -40 -60 5 -145 12 -189 15 -43 3 -82 8 -87 11
-10 6 -1 53 14 72 5 6 24 12 41 12 38 0 80 39 91 85 9 39 21 544 17 718 -2 88
-18 103 -26 25z"/>
<path d="M3638 3105 c-4 -4 -4 -153 -1 -331 l5 -325 -23 -35 c-22 -33 -27 -35
-67 -31 -52 6 -62 -8 -62 -87 0 -87 10 -92 205 -100 61 -3 154 -8 208 -12 l98
-7 -3 74 c-3 70 -4 74 -28 77 -14 2 -30 8 -36 13 -13 11 -10 229 4 255 14 27
10 206 -5 219 -7 6 -14 21 -16 35 -13 92 -72 187 -140 228 -33 21 -127 38
-139 27z m116 -51 c27 -10 54 -66 60 -124 3 -30 8 -153 11 -273 3 -121 9 -236
15 -257 11 -41 43 -69 100 -85 27 -8 36 -18 44 -43 14 -49 2 -55 -90 -42 -43
6 -126 15 -184 20 -159 15 -157 14 -155 58 1 37 1 37 52 42 27 3 57 11 66 18
33 28 40 115 34 410 -6 271 -5 282 13 282 10 0 25 -3 34 -6z"/>
<path d="M8155 2884 c-30 -31 -35 -42 -35 -84 0 -90 -49 -160 -114 -160 -17 0
-48 -3 -69 -6 l-38 -7 3 -50 c3 -50 3 -50 48 -63 27 -8 64 -11 91 -8 55 7 66
-4 45 -44 -8 -16 -11 -33 -7 -38 5 -5 18 -39 30 -76 20 -59 22 -88 22 -271 l0
-206 27 -5 c83 -17 175 -26 322 -31 91 -3 174 -6 184 -8 10 -1 21 3 23 9 3 9
-42 14 -154 18 -168 6 -362 21 -369 29 -3 2 0 24 5 49 6 24 10 73 10 109 1 35
1 73 2 84 4 80 -1 229 -8 234 -12 9 -12 55 1 63 8 5 8 13 -1 28 -7 11 -13 30
-13 44 0 36 -17 43 -108 48 -92 5 -115 19 -84 50 14 15 26 16 71 9 54 -9 101
-1 126 19 9 7 13 43 13 117 0 101 1 108 24 128 30 26 112 24 123 -3 4 -10 11
-66 16 -125 5 -59 13 -116 19 -126 12 -24 56 -32 200 -40 l115 -6 3 -27 3 -28
-148 0 c-116 -1 -152 -4 -168 -16 -19 -14 -20 -28 -23 -242 -2 -124 0 -237 3
-249 6 -26 28 -37 93 -47 29 -4 41 -3 37 4 -3 5 -21 10 -38 10 -44 0 -57 11
-66 53 -11 46 -2 449 9 461 6 6 65 5 152 -1 162 -13 168 -11 168 59 0 50 -17
58 -132 59 -51 0 -113 4 -137 7 l-43 7 -3 50 c-2 28 -8 68 -14 90 -6 22 -11
53 -11 68 0 16 -12 44 -26 63 -25 32 -30 34 -85 34 -55 0 -62 -3 -94 -36z"/>
<path d="M5775 2833 c-70 -11 -181 -44 -205 -61 -29 -22 -38 -63 -17 -81 15
-12 25 -10 132 19 22 6 99 13 170 16 112 5 141 3 215 -15 67 -17 92 -29 119
-55 44 -44 52 -104 22 -163 -29 -58 -54 -61 -178 -19 -171 58 -263 67 -377 35
-47 -13 -95 -59 -126 -119 -60 -115 2 -319 114 -377 49 -26 218 -30 338 -8 71
13 98 22 98 33 0 11 -8 13 -32 8 -137 -28 -352 -31 -399 -5 -22 11 -86 109
-89 134 -5 45 0 65 18 66 13 0 12 2 -6 9 -27 11 -40 39 -23 49 7 4 11 12 9 17
-1 5 6 31 16 57 40 101 138 139 304 118 113 -15 182 -31 182 -44 0 -5 -11 -6
-27 -1 -35 11 -208 10 -247 -1 -37 -10 -101 -70 -115 -108 -23 -60 -7 -135 41
-195 24 -29 101 -52 174 -52 41 0 74 4 74 9 0 6 -25 8 -55 7 -80 -5 -138 10
-162 42 -18 25 -19 32 -8 92 6 36 14 72 18 80 3 8 7 24 9 35 4 22 51 47 119
63 72 17 205 -9 272 -53 62 -40 107 -163 107 -289 0 -41 4 -78 10 -81 9 -5
263 -35 303 -35 9 0 17 7 17 15 0 11 -13 15 -52 15 -66 0 -231 20 -240 28 -3
4 -9 39 -11 77 -3 39 -7 77 -10 85 -3 8 -8 28 -12 45 -12 53 -56 130 -88 153
-18 13 -41 29 -52 37 -19 13 -17 14 25 15 57 0 86 20 101 69 22 73 -9 169 -65
206 -34 23 -155 53 -246 62 -114 11 -186 6 -262 -17 -72 -22 -96 -20 -63 4 21
15 82 30 195 47 260 39 535 -76 618 -258 14 -31 17 -71 18 -219 1 -110 6 -190
13 -202 6 -11 26 -31 43 -44 l33 -23 -23 39 c-14 24 -20 46 -16 59 4 11 6 46
6 76 0 31 4 61 9 67 14 17 -9 193 -30 228 -9 16 -22 40 -30 55 -56 105 -196
200 -356 242 -67 18 -236 24 -320 12z"/>
<path d="M6915 2723 c-16 -8 -49 -31 -72 -49 -35 -29 -43 -43 -53 -91 -13 -62
-8 -119 17 -166 21 -42 49 -64 103 -81 25 -8 73 -27 108 -41 64 -27 205 -54
277 -55 43 0 148 -38 172 -63 23 -23 53 -118 47 -149 -6 -30 -66 -88 -91 -88
-9 0 -14 -3 -11 -6 15 -14 89 19 113 50 30 40 32 83 5 131 -11 20 -20 44 -20
55 0 38 -40 52 -305 104 -44 9 -91 16 -103 16 -13 0 -55 15 -95 33 -40 19 -84
37 -99 41 -55 13 -95 76 -93 146 3 83 27 125 97 173 50 33 89 34 208 7 83 -19
139 -25 128 -14 -3 3 -52 18 -109 34 -117 33 -180 37 -224 13z"/>
<path d="M7460 2675 c-37 -39 -89 -51 -164 -37 -103 19 -223 16 -260 -8 -78
-48 -82 -150 -8 -208 40 -31 133 -57 242 -67 75 -7 66 11 -10 20 -84 11 -155
27 -172 39 -38 28 -76 130 -45 124 7 -2 12 7 12 22 0 16 11 32 32 46 28 18 43
21 100 17 85 -5 163 -28 205 -58 69 -50 84 -55 187 -57 57 -2 99 1 98 6 -1 5
-22 11 -47 12 -124 9 -149 15 -182 44 -18 17 -37 30 -41 30 -20 0 7 20 28 20
13 0 37 11 53 25 27 22 39 25 113 25 78 1 82 2 59 15 -15 9 -54 14 -101 15
-68 0 -78 -2 -99 -25z"/>
<path d="M4935 2660 c-3 -5 1 -10 9 -10 9 0 16 5 16 10 0 6 -4 10 -9 10 -6 0
-13 -4 -16 -10z"/>
<path d="M9230 2639 c-130 -22 -265 -117 -336 -237 -48 -82 -42 -247 13 -354
23 -44 53 -80 53 -63 0 4 -6 13 -14 19 -25 20 -56 128 -56 196 -1 77 1 93 19
143 10 30 17 37 32 32 11 -4 19 -2 19 5 0 17 47 79 95 125 23 22 73 56 110 75
66 34 74 35 198 39 202 5 304 -35 442 -174 52 -53 115 -161 115 -198 0 -12 5
-29 10 -37 8 -12 10 -12 10 5 0 65 -70 201 -129 251 -14 12 -37 32 -51 44 -51
45 -137 94 -205 117 -55 18 -89 23 -170 22 -55 -1 -125 -5 -155 -10z"/>
<path d="M7681 2594 c0 -11 3 -14 6 -6 3 7 2 16 -1 19 -3 4 -6 -2 -5 -13z"/>
<path d="M9340 2544 c-14 -3 -36 -9 -50 -14 -14 -5 -38 -14 -54 -20 -56 -20
-18 -21 43 0 69 23 112 25 179 8 66 -16 140 -65 172 -112 58 -87 60 -90 45
-98 -13 -8 -173 4 -290 21 -66 10 -86 3 -111 -34 -20 -30 -12 -90 14 -100 9
-4 62 -9 117 -11 91 -4 363 -26 493 -40 42 -4 52 -3 52 10 0 16 -36 22 -205
30 -55 3 -178 11 -272 18 l-173 12 -6 32 c-3 18 -3 37 0 43 12 18 98 24 195
12 104 -12 289 -17 298 -7 4 3 -3 15 -15 26 -23 21 -31 46 -11 34 8 -4 9 1 4
17 -4 13 -8 24 -9 25 0 0 -21 16 -46 36 -25 20 -78 53 -117 73 -62 31 -85 37
-150 40 -43 2 -89 1 -103 -1z"/>
<path d="M10141 2532 c-6 -12 -14 -42 -16 -67 -5 -47 9 -65 54 -65 21 0 54
-38 45 -52 -3 -5 6 -18 20 -29 18 -14 26 -30 26 -52 0 -18 7 -41 15 -51 20
-27 19 -52 -5 -76 -15 -15 -17 -20 -5 -20 23 0 28 -43 11 -101 -9 -29 -16 -63
-16 -75 0 -31 -45 -81 -80 -89 -22 -5 -30 -14 -35 -36 -4 -17 -4 -33 -1 -36 3
-4 6 0 6 8 0 8 5 21 10 29 9 13 13 11 29 -10 17 -22 19 -22 18 -5 -2 16 6 21
43 25 55 7 90 25 90 47 0 9 7 21 14 27 8 6 18 25 21 41 6 29 6 29 -11 -5 -17
-35 -18 -34 -29 180 -7 134 -17 225 -25 242 -10 22 -10 31 -1 42 20 24 -21 38
-100 34 -64 -3 -83 2 -59 17 5 3 7 11 5 18 -10 27 12 39 71 38 85 -1 296 -18
314 -25 8 -4 26 -22 38 -41 18 -25 34 -36 67 -43 48 -10 131 -1 202 22 26 8
87 18 136 22 l87 6 0 -60 c0 -59 -1 -61 -32 -70 -18 -6 -60 -13 -94 -16 -77
-8 -279 -61 -317 -84 -55 -32 -66 -58 -73 -169 -6 -84 -4 -110 10 -148 21 -53
54 -82 105 -91 64 -10 71 -14 71 -40 0 -13 5 -24 10 -24 9 0 7 26 -5 66 -2 6
-29 15 -59 18 -92 12 -108 42 -105 193 3 118 18 155 72 178 41 17 274 65 317
65 18 0 51 5 72 12 51 15 64 44 49 113 -6 28 -9 59 -8 70 2 19 -4 20 -113 19
-96 -1 -129 -5 -197 -28 -130 -42 -181 -35 -197 29 -3 13 -14 26 -24 29 -42
13 -157 26 -278 32 -128 7 -132 6 -143 -14z"/>
<path d="M9144 2442 c-19 -12 -54 -90 -54 -119 1 -26 2 -26 14 9 7 20 23 53
35 73 22 38 24 49 5 37z"/>
<path d="M6258 2393 c12 -2 30 -2 40 0 9 3 -1 5 -23 4 -22 0 -30 -2 -17 -4z"/>
<path d="M6333 2383 c9 -2 25 -2 35 0 9 3 1 5 -18 5 -19 0 -27 -2 -17 -5z"/>
<path d="M8930 2345 c0 -8 2 -15 4 -15 2 0 6 7 10 15 3 8 1 15 -4 15 -6 0 -10
-7 -10 -15z"/>
<path d="M10378 2187 c2 -108 7 -175 14 -182 13 -12 4 315 -9 339 -4 8 -7 -63
-5 -157z"/>
<path d="M7505 2300 c27 -12 43 -12 25 0 -8 5 -22 9 -30 9 -10 0 -8 -3 5 -9z"/>
<path d="M8917 2294 c-4 -4 -7 -14 -7 -23 0 -11 3 -12 11 -4 6 6 10 16 7 23
-2 6 -7 8 -11 4z"/>
<path d="M9080 2242 c0 -23 4 -42 8 -42 10 0 9 66 -1 76 -4 4 -7 -11 -7 -34z"/>
<path d="M9090 2146 c0 -8 5 -18 10 -21 6 -3 10 1 10 9 0 8 -4 18 -10 21 -5 3
-10 -1 -10 -9z"/>
<path d="M6835 2118 c-3 -7 -4 -56 -2 -108 l2 -95 48 -8 c41 -6 50 -5 70 14
52 49 90 50 187 3 41 -20 95 -42 120 -50 63 -20 251 -30 276 -15 16 10 11 11
-31 8 -27 -3 -97 2 -155 10 -84 11 -121 22 -185 53 -125 61 -156 63 -214 15
-25 -22 -35 -25 -63 -17 -31 8 -33 11 -31 53 1 24 2 62 3 83 1 24 8 45 18 53
15 11 14 12 -11 13 -15 0 -30 -6 -32 -12z"/>
<path d="M6050 2093 c8 -3 18 -11 22 -17 5 -7 8 -4 8 7 0 11 -7 17 -22 16 -16
0 -18 -2 -8 -6z"/>
<path d="M9120 2091 c0 -6 4 -13 10 -16 6 -3 7 1 4 9 -7 18 -14 21 -14 7z"/>
<path d="M9625 1974 c-16 -8 -38 -23 -47 -31 -10 -9 -42 -24 -70 -34 -40 -13
-48 -19 -35 -24 28 -11 104 13 162 51 l53 36 84 -7 c55 -5 80 -4 73 3 -5 5
-50 12 -100 16 -72 5 -96 3 -120 -10z"/>
<path d="M8960 1964 c0 -4 28 -34 63 -66 73 -70 157 -113 266 -135 90 -18 252
-19 324 -2 55 12 200 81 224 105 8 8 18 14 22 14 7 0 31 44 31 56 0 3 -22 -14
-50 -39 -57 -51 -131 -89 -222 -113 -112 -29 -344 -7 -442 42 -16 7 -33 14
-38 14 -5 0 -15 6 -22 13 -7 6 -26 22 -42 34 -16 13 -46 36 -68 53 -41 31 -46
34 -46 24z"/>
<path d="M8675 1930 c3 -5 8 -10 11 -10 2 0 4 5 4 10 0 6 -5 10 -11 10 -5 0
-7 -4 -4 -10z"/>
<path d="M7585 1880 c-7 -12 2 -12 30 0 19 8 19 9 -2 9 -12 1 -25 -3 -28 -9z"/>
<path d="M10191 1737 c-8 -10 -9 -17 -1 -22 5 -3 106 -8 222 -11 117 -3 246
-7 286 -11 71 -5 72 -5 72 18 l0 24 -253 3 c-138 2 -266 5 -283 8 -20 4 -34 0
-43 -9z"/>
<path d="M2628 1353 c7 -3 16 -2 19 1 4 3 -2 6 -13 5 -11 0 -14 -3 -6 -6z"/>
<path d="M2773 1333 c15 -2 39 -2 55 0 15 2 2 4 -28 4 -30 0 -43 -2 -27 -4z"/>
<path d="M2888 1323 c12 -2 30 -2 40 0 9 3 -1 5 -23 4 -22 0 -30 -2 -17 -4z"/>
<path d="M2993 1313 c9 -2 25 -2 35 0 9 3 1 5 -18 5 -19 0 -27 -2 -17 -5z"/>
<path d="M3113 1303 c9 -2 25 -2 35 0 9 3 1 5 -18 5 -19 0 -27 -2 -17 -5z"/>
<path d="M3238 1293 c7 -3 16 -2 19 1 4 3 -2 6 -13 5 -11 0 -14 -3 -6 -6z"/>
<path d="M3353 1283 c9 -2 23 -2 30 0 6 3 -1 5 -18 5 -16 0 -22 -2 -12 -5z"/>
<path d="M3498 1263 c12 -2 30 -2 40 0 9 3 -1 5 -23 4 -22 0 -30 -2 -17 -4z"/>
<path d="M3613 1253 c9 -2 23 -2 30 0 6 3 -1 5 -18 5 -16 0 -22 -2 -12 -5z"/>
<path d="M3728 1243 c7 -3 16 -2 19 1 4 3 -2 6 -13 5 -11 0 -14 -3 -6 -6z"/>
<path d="M4223 1193 c9 -2 25 -2 35 0 9 3 1 5 -18 5 -19 0 -27 -2 -17 -5z"/>
<path d="M4458 1173 c7 -3 16 -2 19 1 4 3 -2 6 -13 5 -11 0 -14 -3 -6 -6z"/>
<path d="M5823 1043 c9 -2 23 -2 30 0 6 3 -1 5 -18 5 -16 0 -22 -2 -12 -5z"/>
<path d="M5918 1033 c12 -2 30 -2 40 0 9 3 -1 5 -23 4 -22 0 -30 -2 -17 -4z"/>
<path d="M6533 973 c9 -2 23 -2 30 0 6 3 -1 5 -18 5 -16 0 -22 -2 -12 -5z"/>
<path d="M6648 963 c6 -2 18 -2 25 0 6 3 1 5 -13 5 -14 0 -19 -2 -12 -5z"/>
<path d="M6763 953 c15 -2 37 -2 50 0 12 2 0 4 -28 4 -27 0 -38 -2 -22 -4z"/>
<path d="M6873 943 c9 -2 25 -2 35 0 9 3 1 5 -18 5 -19 0 -27 -2 -17 -5z"/>
<path d="M6993 933 c9 -2 23 -2 30 0 6 3 -1 5 -18 5 -16 0 -22 -2 -12 -5z"/>
<path d="M9258 823 c7 -3 16 -2 19 1 4 3 -2 6 -13 5 -11 0 -14 -3 -6 -6z"/>
</g>
</svg>
