<?xml version="1.0" standalone="no"?>
<!DOCTYPE svg PUBLIC "-//W3C//DTD SVG 20010904//EN"
 "http://www.w3.org/TR/2001/REC-SVG-20010904/DTD/svg10.dtd">
<svg version="1.0" xmlns="http://www.w3.org/2000/svg"
 width="1200.000000pt" height="1200.000000pt" viewBox="0 0 1200.000000 1200.000000"
 preserveAspectRatio="xMidYMid meet">

<g transform="translate(0.000000,1200.000000) scale(0.100000,-0.100000)"
fill="#000000" stroke="none">
<path d="M750 9375 l0 -1875 1875 0 1875 0 0 1875 0 1875 -1875 0 -1875 0 0
-1875z m3000 0 l0 -1125 -1125 0 -1125 0 0 1125 0 1125 1125 0 1125 0 0 -1125z"/>
<path d="M2250 9375 l0 -375 375 0 375 0 0 375 0 375 -375 0 -375 0 0 -375z"/>
<path d="M5250 10125 l0 -1125 375 0 375 0 0 -375 0 -375 -375 0 -375 0 0
-750 0 -750 375 0 375 0 0 -375 0 -375 -1125 0 -1125 0 0 375 0 375 -750 0
-750 0 0 -375 0 -375 -375 0 -375 0 0 375 0 375 -375 0 -375 0 0 -375 0 -375
375 0 375 0 0 -375 0 -375 375 0 375 0 0 375 0 375 375 0 375 0 0 -375 0 -375
1125 0 1125 0 0 -375 0 -375 375 0 375 0 0 -375 0 -375 -375 0 -375 0 0 -1125
0 -1125 375 0 375 0 0 -375 0 -375 1500 0 1500 0 0 750 0 750 750 0 750 0 0
-375 0 -375 -375 0 -375 0 0 -375 0 -375 375 0 375 0 0 375 0 375 375 0 375 0
0 375 0 375 -375 0 -375 0 0 375 0 375 375 0 375 0 0 375 0 375 -375 0 -375 0
0 750 0 750 375 0 375 0 0 750 0 750 -375 0 -375 0 0 -375 0 -375 -375 0 -375
0 0 -750 0 -750 -1125 0 -1125 0 0 375 0 375 -375 0 -375 0 0 -375 0 -375
-375 0 -375 0 0 750 0 750 375 0 375 0 0 375 0 375 -375 0 -375 0 0 375 0 375
375 0 375 0 0 1125 0 1125 -375 0 -375 0 0 375 0 375 375 0 375 0 0 375 0 375
-750 0 -750 0 0 -1125z m2250 -6000 l0 -375 750 0 750 0 0 -750 0 -750 -375 0
-375 0 0 -375 0 -375 -1125 0 -1125 0 0 375 0 375 375 0 375 0 0 375 0 375
-375 0 -375 0 0 375 0 375 375 0 375 0 0 375 0 375 375 0 375 0 0 -375z m3000
-750 l0 -375 -375 0 -375 0 0 375 0 375 375 0 375 0 0 -375z"/>
<path d="M6750 3375 l0 -375 375 0 375 0 0 -375 0 -375 375 0 375 0 0 375 0
375 -375 0 -375 0 0 375 0 375 -375 0 -375 0 0 -375z"/>
<path d="M7500 9375 l0 -1875 1875 0 1875 0 0 1875 0 1875 -1875 0 -1875 0 0
-1875z m3000 0 l0 -1125 -1125 0 -1125 0 0 1125 0 1125 1125 0 1125 0 0 -1125z"/>
<path d="M9000 9375 l0 -375 375 0 375 0 0 375 0 375 -375 0 -375 0 0 -375z"/>
<path d="M7500 6375 l0 -375 375 0 375 0 0 -375 0 -375 375 0 375 0 0 750 0
750 -750 0 -750 0 0 -375z"/>
<path d="M750 2625 l0 -1875 1875 0 1875 0 0 1875 0 1875 -1875 0 -1875 0 0
-1875z m3000 0 l0 -1125 -1125 0 -1125 0 0 1125 0 1125 1125 0 1125 0 0 -1125z"/>
<path d="M2250 2625 l0 -375 375 0 375 0 0 375 0 375 -375 0 -375 0 0 -375z"/>
</g>
</svg>
